<?xml version="1.0" encoding="iso-8859-1"?>
<!-- Generator: Adobe Illustrator 19.0.0, SVG Export Plug-In . SVG Version: 6.00 Build 0)  -->
<svg version="1.1" id="Layer_1" xmlns="http://www.w3.org/2000/svg" xmlns:xlink="http://www.w3.org/1999/xlink" x="0px" y="0px"
	 viewBox="0 0 496 496" style="enable-background:new 0 0 496 496;" xml:space="preserve">
<g>
	<g>
		<path d="M494.896,339.888c-0.432-2.552-0.992-5.064-1.688-7.52c-0.16-0.56-0.264-1.128-0.432-1.68
			c-0.888-2.856-2-5.608-3.224-8.304c-0.368-0.808-0.76-1.608-1.16-2.408c-1.328-2.664-2.776-5.264-4.416-7.728
			c-0.056-0.08-0.088-0.168-0.144-0.248C491.816,300.152,496,286.448,496,272c0-39.704-32.296-72-72-72
			c-33.816,0-62.816,23.624-70.16,56h-49.76l-94.624-116.712C218.872,126.832,224,111.696,224,96c0-39.704-32.296-72-72-72
			c-30.04,0-56.896,18.904-67.344,46.672C46.504,72.424,16,104.016,16,142.592c0,25.672,13.544,48.184,33.824,60.936
			C20.952,212.904,0,240.04,0,272c0,14.448,4.184,28.152,12.168,40c-0.056,0.08-0.088,0.168-0.144,0.248
			c-1.64,2.464-3.08,5.064-4.416,7.728c-0.4,0.8-0.792,1.6-1.16,2.416c-1.224,2.688-2.336,5.44-3.224,8.296
			c-0.168,0.552-0.272,1.128-0.432,1.68c-0.696,2.456-1.256,4.96-1.688,7.52c-0.152,0.904-0.296,1.808-0.416,2.72
			C0.28,345.688,0,348.808,0,352c0,39.704,32.296,72,72,72c33.816,0,62.816-23.624,70.16-56h89.392
			c-4.904,9.84-7.552,20.712-7.552,32c0,39.704,32.296,72,72,72c30.04,0,56.896-18.904,67.344-46.672
			c10.872-0.496,21.088-3.488,30.192-8.304C403.088,421.512,413.488,424,424,424c39.704,0,72-32.296,72-72
			c0-3.192-0.28-6.312-0.688-9.392C495.2,341.688,495.048,340.792,494.896,339.888z M128.384,352l-0.872,7.008
			C124.016,386.936,100.16,408,72,408c-30.872,0-56-25.128-56-56c0-2.856,0.288-5.664,0.704-8.432
			c0.088-0.576,0.16-1.152,0.264-1.728c0.472-2.592,1.136-5.136,1.976-7.624c0.2-0.584,0.424-1.16,0.64-1.744
			c0.952-2.536,2.024-5.024,3.344-7.408c0.104-0.192,0.232-0.376,0.344-0.56c1.416-2.496,3.032-4.904,4.856-7.2
			c0.184-0.232,0.352-0.488,0.544-0.72l0.224-0.28C39.168,303.912,54.68,296,72,296v-16c-18.872,0-36.024,7.352-48.872,19.28
			C18.456,290.984,16,281.712,16,272c0-30.872,25.128-56,56-56c28.16,0,52.016,21.064,55.504,48.992l0.88,7.008h44.48l12.976,16H176
			v16h22.808l12.976,16H200v16h24.752l12.976,16H128.384z M110.064,211c3.432-1.112,6.824-2.392,10.072-4.024L159.888,256H142.16
			C137.832,236.936,125.968,220.96,110.064,211z M360,409.408l-8.432-0.36l-1.704,6.08C343.128,439.184,320.976,456,296,456
			c-30.872,0-56-25.128-56-56c0-14.816,5.744-28.792,16.168-39.344l5.04-5.104L123.832,186.128l-6.008,3.8
			C108.856,195.6,98.544,198.6,88,198.6c-30.872,0-56-25.128-56-56c0-30.872,25.128-56,56-56s56,25.128,56,56h16
			c0-35.072-25.216-64.328-58.472-70.68C110.696,52.752,130.264,40,152,40c30.872,0,56,25.128,56,56
			c0,14-5.248,27.432-14.792,37.816l-4.672,5.088l127.68,157.48c-17.12,13.168-28.216,33.8-28.216,57.024h16
			c0-20.712,11.336-38.8,28.112-48.488c4.096-2.36,8.456-4.168,12.952-5.424c0.36-0.096,0.72-0.184,1.08-0.28
			c1.84-0.472,3.704-0.84,5.576-1.128c0.504-0.072,0.992-0.168,1.496-0.232c2.248-0.28,4.512-0.456,6.784-0.456
			c30.872,0,56,25.128,56,56S390.872,409.408,360,409.408z M467.112,316.304l0.224,0.28c0.192,0.232,0.352,0.488,0.536,0.72
			c1.824,2.296,3.44,4.704,4.856,7.2c0.112,0.192,0.232,0.368,0.344,0.56c1.32,2.384,2.392,4.872,3.344,7.408
			c0.216,0.576,0.44,1.152,0.64,1.744c0.832,2.488,1.496,5.032,1.976,7.624c0.104,0.568,0.176,1.144,0.264,1.72
			c0.416,2.776,0.704,5.584,0.704,8.44c0,30.872-25.128,56-56,56c-5.104,0-10.08-0.736-14.896-2.088
			C423.152,392.768,432,374.12,432,353.408c0-39.704-32.296-72-72-72c-2.584,0-5.128,0.152-7.64,0.416
			c-0.264,0.032-0.52,0.088-0.792,0.12c-2.296,0.272-4.568,0.632-6.792,1.112c-0.232,0.048-0.456,0.128-0.696,0.176
			c-2.256,0.512-4.472,1.12-6.648,1.84c-0.304,0.104-0.6,0.224-0.904,0.336c-2.072,0.72-4.096,1.512-6.08,2.408
			c-0.144,0.064-0.296,0.112-0.44,0.176L317.048,272h50.568l0.872-7.008C371.984,237.064,395.84,216,424,216
			c30.872,0,56,25.128,56,56c0,9.712-2.456,18.984-7.128,27.28C460.024,287.352,442.872,280,424,280v16
			C441.32,296,456.832,303.912,467.112,316.304z"/>
	</g>
</g>
<g>
</g>
<g>
</g>
<g>
</g>
<g>
</g>
<g>
</g>
<g>
</g>
<g>
</g>
<g>
</g>
<g>
</g>
<g>
</g>
<g>
</g>
<g>
</g>
<g>
</g>
<g>
</g>
<g>
</g>
</svg>
