<?xml version="1.0" encoding="iso-8859-1"?>
<!-- Generator: Adobe Illustrator 19.0.0, SVG Export Plug-In . SVG Version: 6.00 Build 0)  -->
<svg version="1.1" id="Layer_1" xmlns="http://www.w3.org/2000/svg" xmlns:xlink="http://www.w3.org/1999/xlink" x="0px" y="0px"
	 viewBox="0 0 512 512" style="enable-background:new 0 0 512 512;" xml:space="preserve">
<g>
	<g>
		<path d="M511.969,490.625l-8.727-98.663c-2.994-33.85-27.123-62.258-60.04-70.691l-99.967-25.609
			c-2.617-0.671-5.391,0.046-7.355,1.898l-2.463,2.322l-25.451-11.366l-2.136-12.829c0.244-0.106,0.484-0.218,0.726-0.326
			c0.498-0.22,0.995-0.439,1.488-0.669c0.465-0.217,0.924-0.446,1.385-0.672c30.348-14.814,50.411-46.79,50.399-82.881
			l-0.005-16.642l1.264-0.001c5.869-0.002,11.387-2.29,15.535-6.441c4.149-4.152,6.433-9.67,6.431-15.54l-0.007-21.051
			c-0.003-10.583-7.529-19.439-17.512-21.509c2.346-3.443,3.328-7.678,2.703-11.886l-4.889-32.923
			c-4.505-30.332-29.125-52.338-58.55-52.338c-0.005,0-0.015,0-0.021,0l-97.616,0.031c-21.511,0.007-41.357,12.195-51.794,31.809
			c-2.043,3.839-0.588,8.606,3.251,10.649c3.838,2.043,8.606,0.588,10.649-3.251c7.698-14.466,22.22-23.455,37.9-23.46l97.616-0.031
			c0.005,0,0.009,0,0.015,0c21.554,0,39.628,16.36,42.975,38.904l1.343,9.044l-59.632,0.02
			c-5.847-12.656-18.653-21.464-33.485-21.464c-0.003,0-0.008,0-0.012,0c-0.629,0-1.255,0.017-1.879,0.048
			c-0.087,0.004-0.172,0.014-0.258,0.019c-0.544,0.031-1.085,0.07-1.624,0.124c-0.012,0.001-0.023,0.003-0.035,0.004
			c-8.414,0.858-16.214,4.549-22.273,10.612c-3.141,3.143-5.638,6.756-7.44,10.676l-59.612,0.02l0.18-1.214
			c0.636-4.301-2.336-8.304-6.638-8.94c-4.299-0.632-8.305,2.336-8.94,6.638l-3.71,25.096c-0.621,4.206,0.362,8.439,2.708,11.88
			c-4.174,0.854-8.011,2.904-11.092,5.987c-4.149,4.152-6.433,9.67-6.431,15.54l0.007,21.052
			c0.004,12.112,9.861,21.965,21.973,21.966c0.001,0,0.006,0,0.007,0l1.291-0.001l0.005,16.859
			c0.012,36.404,20.496,68.668,51.34,83.276c0.015,0.007,0.029,0.015,0.044,0.022c0.759,0.359,1.527,0.701,2.299,1.039
			c0.076,0.034,0.15,0.069,0.226,0.102l-2.106,12.65l-25.451,11.366l-2.463-2.322c-1.964-1.851-4.739-2.569-7.355-1.898
			l-99.966,25.612c-32.917,8.433-57.046,36.842-60.04,70.691l-8.726,98.663c-0.195,2.2,0.544,4.381,2.036,6.01
			c1.491,1.629,3.599,2.556,5.807,2.556h88.001c0.004,0,0.007,0.001,0.012,0.001c0.004,0,0.007-0.001,0.01-0.001h320.208
			c0.003,0,0.007,0.001,0.01,0.001c0.004,0,0.007-0.001,0.012-0.001h88.001c2.209,0,4.316-0.928,5.807-2.556
			C511.425,495.005,512.164,492.825,511.969,490.625z M150.927,158.822v7.873l-0.001-7.873c-3.433,0-6.226-2.793-6.227-6.225
			l-0.007-21.052c-0.001-1.663,0.647-3.227,1.822-4.404c1.176-1.177,2.739-1.824,4.402-1.826l1.267-0.001l0.01,33.506
			L150.927,158.822z M335.452,227.244l-4.394-33.006l13.022-10.827l0.002,7.735C344.086,204.117,340.988,216.441,335.452,227.244z
			 M361.076,125.245c3.433,0,6.226,2.792,6.227,6.225l0.005,21.051c0.001,1.663-0.647,3.228-1.822,4.404
			c-1.176,1.177-2.74,1.825-4.403,1.826l-1.264,0.001l-0.01-33.506H361.076z M291.949,100.095c0.063-0.275,0.13-0.548,0.187-0.825
			c0.068-0.338,0.124-0.678,0.182-1.018c0.065-0.377,0.128-0.755,0.182-1.136c0.043-0.307,0.082-0.614,0.118-0.922
			c0.052-0.451,0.093-0.905,0.129-1.362c0.02-0.251,0.043-0.502,0.058-0.754c0.035-0.599,0.054-1.203,0.059-1.809l58.593-0.019
			l1.208,8.133c0.084,0.566-0.245,0.847-0.284,0.865l-60.695,0.02C291.784,100.881,291.86,100.487,291.949,100.095z M241.057,77
			c3.989-3.991,9.294-6.19,14.942-6.193c0.722,0,1.436,0.038,2.141,0.108c0.099,0.01,0.195,0.033,0.294,0.043
			c0.612,0.07,1.22,0.155,1.814,0.278c0.01,0.002,0.02,0.005,0.03,0.007c8.216,1.697,14.704,8.182,16.407,16.396
			c0.003,0.013,0.007,0.024,0.009,0.037c0.122,0.592,0.206,1.197,0.277,1.807c0.012,0.101,0.035,0.199,0.045,0.301
			c0.071,0.704,0.109,1.418,0.109,2.14c0,0.669-0.039,1.328-0.1,1.981c-0.017,0.176-0.042,0.351-0.062,0.526
			c-0.059,0.499-0.132,0.992-0.226,1.479c-0.031,0.163-0.063,0.325-0.098,0.487c-0.12,0.555-0.259,1.103-0.422,1.641
			c-0.022,0.071-0.039,0.145-0.062,0.215c-0.401,1.277-0.922,2.502-1.547,3.662c-0.042,0.079-0.089,0.154-0.132,0.233
			c-0.267,0.481-0.552,0.949-0.854,1.407c-0.08,0.121-0.162,0.24-0.245,0.359c-3.034,4.387-7.678,7.579-13.076,8.702
			c-0.028,0.005-0.057,0.012-0.085,0.018c-0.643,0.131-1.299,0.23-1.961,0.301c-0.086,0.009-0.172,0.015-0.258,0.022
			c-0.646,0.061-1.297,0.099-1.958,0.1c-0.014,0-0.026,0.001-0.04,0.001c-0.007,0-0.015-0.001-0.022-0.001
			c-0.668-0.001-1.327-0.039-1.979-0.101c-0.08-0.007-0.161-0.013-0.24-0.021c-0.67-0.071-1.33-0.171-1.98-0.303
			c-0.02-0.004-0.04-0.008-0.06-0.013c-5.408-1.118-10.062-4.315-13.1-8.71c-0.077-0.111-0.153-0.223-0.227-0.334
			c-0.309-0.465-0.6-0.944-0.872-1.434c-0.039-0.07-0.081-0.139-0.12-0.209c-0.628-1.162-1.149-2.389-1.553-3.669
			c-0.022-0.068-0.039-0.139-0.06-0.208c-0.164-0.54-0.304-1.09-0.425-1.647c-0.035-0.161-0.066-0.323-0.098-0.486
			c-0.093-0.487-0.167-0.98-0.227-1.479c-0.021-0.175-0.046-0.35-0.063-0.526c-0.061-0.653-0.101-1.312-0.101-1.98
			C234.872,86.297,237.068,80.991,241.057,77z M159.986,101.316h-0.352c-0.052-0.022-0.381-0.303-0.297-0.87l1.203-8.135
			l58.597-0.018c0.006,0.607,0.025,1.209,0.06,1.809c0.015,0.254,0.039,0.506,0.058,0.759c0.036,0.452,0.078,0.903,0.129,1.35
			c0.036,0.313,0.076,0.625,0.12,0.935c0.054,0.373,0.114,0.742,0.178,1.112c0.06,0.349,0.118,0.698,0.188,1.044
			c0.049,0.24,0.109,0.478,0.163,0.716c0.094,0.425,0.18,0.853,0.29,1.273l-60.248,0.02
			C160.044,101.312,160.015,101.316,159.986,101.316z M167.951,117.056l30.136-0.01l30.914-0.01
			c0.302,0.324,0.618,0.635,0.931,0.948c0.006,0.006,0.013,0.013,0.019,0.019c0.355,0.354,0.718,0.698,1.086,1.036
			c0.105,0.097,0.21,0.194,0.316,0.29c0.291,0.26,0.586,0.515,0.885,0.766c0.208,0.175,0.417,0.35,0.628,0.52
			c0.214,0.172,0.43,0.342,0.648,0.509c0.324,0.251,0.653,0.494,0.986,0.735c0.121,0.086,0.24,0.173,0.362,0.258
			c0.456,0.32,0.919,0.63,1.389,0.929c0.01,0.006,0.021,0.014,0.03,0.02c5.708,3.628,12.469,5.739,19.717,5.739h0.012
			c7.253-0.003,14.015-2.118,19.723-5.751c0.009-0.006,0.019-0.013,0.029-0.019c0.473-0.301,0.939-0.613,1.397-0.935
			c0.115-0.081,0.23-0.163,0.344-0.246c0.34-0.246,0.677-0.497,1.009-0.753c0.208-0.161,0.414-0.322,0.618-0.487
			c0.224-0.181,0.444-0.364,0.663-0.55c0.287-0.241,0.569-0.486,0.848-0.736c0.12-0.108,0.238-0.218,0.357-0.328
			c0.354-0.325,0.703-0.657,1.044-0.997c0.023-0.023,0.046-0.047,0.07-0.071c0.302-0.302,0.607-0.603,0.899-0.915l61.044-0.02v0.345
			c0,0.012-0.002,0.022-0.002,0.033l0.015,45.563l-24.759,20.585c-21.2,3.444-42.516,5.206-63.394,5.206
			c-20.791,0.003-42.026-1.745-63.151-5.162l-24.799-20.572L167.951,117.056z M176.63,227.495
			c-5.544-10.798-8.649-23.115-8.653-36.072l-0.003-7.964l13.055,10.83L176.63,227.495z M190.058,246.02l6.092-45.982
			c20.005,2.948,40.073,4.44,59.768,4.44c19.784,0,39.935-1.504,60.02-4.478l6.096,45.786c-5.024,5.1-10.695,9.369-16.835,12.711
			c-0.166,0.09-0.332,0.181-0.499,0.27c-0.532,0.284-1.068,0.561-1.607,0.83c-0.318,0.159-0.638,0.313-0.958,0.467
			c-0.452,0.218-0.905,0.438-1.363,0.647c-0.771,0.35-1.546,0.69-2.332,1.012c-0.234,0.097-0.471,0.184-0.705,0.278
			c-0.653,0.26-1.309,0.514-1.971,0.755c-0.256,0.093-0.513,0.183-0.771,0.273c-0.611,0.214-1.226,0.417-1.845,0.615
			c-0.277,0.089-0.553,0.183-0.831,0.268c-0.003,0.001-0.006,0.002-0.008,0.003c-0.921,0.281-1.849,0.548-2.786,0.794l-1.053,0.275
			c-9.453,2.467-19.153,3.848-28.882,4.144c-5.559,0.169-11.128-0.016-16.665-0.554c-4.031-0.393-8.044-0.977-12.028-1.746
			c-0.122-0.023-0.245-0.042-0.366-0.065c-0.973-0.19-1.941-0.405-2.91-0.618c-1.755-0.385-3.506-0.795-5.246-1.253
			c-0.049-0.013-0.099-0.028-0.148-0.042c-0.272-0.072-0.548-0.157-0.822-0.234c-0.527-0.147-1.055-0.295-1.576-0.453
			c-0.029-0.008-0.059-0.019-0.088-0.028c-0.552-0.17-1.104-0.352-1.657-0.537c-0.261-0.087-0.523-0.173-0.782-0.263
			c-0.48-0.167-0.96-0.336-1.436-0.513c-0.286-0.106-0.567-0.218-0.85-0.329C205.718,258.885,197.23,253.297,190.058,246.02z
			 M214.314,301.17c2.411-1.077,4.122-3.291,4.556-5.896l2.402-14.424c0.236,0.057,0.473,0.105,0.71,0.161
			c0.802,0.19,1.606,0.368,2.41,0.545c0.664,0.145,1.327,0.289,1.991,0.424c0.849,0.173,1.701,0.338,2.552,0.497
			c0.592,0.11,1.184,0.216,1.777,0.319c0.943,0.164,1.886,0.318,2.832,0.462c0.472,0.072,0.945,0.14,1.417,0.208
			c1.07,0.153,2.14,0.297,3.212,0.425c0.309,0.037,0.618,0.07,0.927,0.105c1.228,0.14,2.458,0.268,3.689,0.377
			c0.099,0.008,0.196,0.016,0.295,0.024c4.157,0.359,8.328,0.555,12.503,0.555c0.001,0,0.001,0,0.001,0c0.002,0,0.004,0,0.006,0
			c0.002,0,0.003,0,0.005,0c0,0-0.001,0,0.001,0c5.941,0,11.877-0.376,17.775-1.101c0.034-0.004,0.067-0.007,0.102-0.012
			c1.115-0.138,2.228-0.297,3.339-0.461c0.419-0.061,0.839-0.117,1.258-0.182c0.888-0.139,1.774-0.294,2.661-0.449
			c0.639-0.111,1.278-0.22,1.916-0.34c0.752-0.142,1.501-0.296,2.251-0.45c0.757-0.154,1.514-0.311,2.269-0.478
			c0.688-0.152,1.373-0.315,2.059-0.477c0.489-0.115,0.98-0.219,1.468-0.34l2.432,14.61c0.435,2.606,2.145,4.82,4.556,5.897
			l23.319,10.414L256,372.86l-65.005-61.277L214.314,301.17z M141.837,374.14c5.966,0,10.82,4.854,10.82,10.82
			s-4.854,10.82-10.82,10.82s-10.82-4.854-10.82-10.82C131.018,378.995,135.872,374.14,141.837,374.14z M423.318,483.445
			l-6.095-67.477c-0.392-4.33-4.219-7.516-8.55-7.133c-4.33,0.391-7.524,4.219-7.133,8.55l5.967,66.061H104.492l1.99-22.031
			c0.392-4.331-2.803-8.159-7.133-8.55c-4.333-0.381-8.158,2.803-8.55,7.133l-2.117,23.449H16.473l7.968-90.096
			c2.407-27.209,21.803-50.045,48.264-56.824l61.26-15.693v38.754c-10.817,3.363-18.693,13.466-18.693,25.375
			c0,14.648,11.918,26.566,26.566,26.566s26.566-11.917,26.566-26.566c0-11.909-7.876-22.011-18.693-25.375V316.8l18.76-4.806
			l79.655,75.088v49.654c0,4.348,3.525,7.873,7.873,7.873c4.348,0,7.873-3.525,7.873-7.873v-49.654l79.655-75.088l10.1,2.588v45.797
			c-15.567,0.67-28.026,13.538-28.026,29.266v66.847c0,2.867,1.559,5.508,4.069,6.893l14.665,8.094
			c3.805,2.101,8.597,0.718,10.697-3.088c2.101-3.806,0.718-8.597-3.088-10.697l-10.596-5.848v-62.199
			c0-7.473,6.079-13.552,13.552-13.552h13.2c7.473,0,13.552,6.079,13.552,13.552v62.199l-10.596,5.848
			c-3.806,2.101-5.19,6.891-3.088,10.697c1.436,2.601,4.126,4.07,6.9,4.07c1.287,0,2.591-0.316,3.797-0.982l14.665-8.094
			c2.51-1.386,4.069-4.026,4.069-6.893v-66.85c0-15.729-12.459-28.597-28.026-29.266v-41.763l69.92,17.912
			c26.461,6.779,45.857,29.615,48.264,56.824l7.968,90.096H423.318z"/>
	</g>
</g>
<g>
	<g>
		<path d="M103.326,408.835c-4.332-0.386-8.159,2.803-8.55,7.133l-1.646,18.222c-0.392,4.33,2.802,8.159,7.133,8.55
			c0.241,0.021,0.481,0.033,0.718,0.033c4.028,0,7.463-3.076,7.832-7.166l1.646-18.222
			C110.85,413.054,107.656,409.226,103.326,408.835z"/>
	</g>
</g>
<g>
	<g>
		<path d="M205.174,135.062c-4.348,0-7.873,3.525-7.873,7.873v6.309c0,4.348,3.525,7.873,7.873,7.873s7.873-3.525,7.873-7.873
			v-6.309C213.047,138.587,209.522,135.062,205.174,135.062z"/>
	</g>
</g>
<g>
	<g>
		<path d="M306.826,135.063c-4.348,0-7.873,3.525-7.873,7.873v6.309c0,4.348,3.525,7.873,7.873,7.873
			c4.348,0,7.873-3.525,7.873-7.873v-6.309C314.699,138.588,311.174,135.063,306.826,135.063z"/>
	</g>
</g>
<g>
</g>
<g>
</g>
<g>
</g>
<g>
</g>
<g>
</g>
<g>
</g>
<g>
</g>
<g>
</g>
<g>
</g>
<g>
</g>
<g>
</g>
<g>
</g>
<g>
</g>
<g>
</g>
<g>
</g>
</svg>
