<?xml version="1.0" encoding="iso-8859-1"?>
<!-- Generator: Adobe Illustrator 19.0.0, SVG Export Plug-In . SVG Version: 6.00 Build 0)  -->
<svg version="1.1" id="Layer_1" xmlns="http://www.w3.org/2000/svg" xmlns:xlink="http://www.w3.org/1999/xlink" x="0px" y="0px"
	 viewBox="0 0 512 512" style="enable-background:new 0 0 512 512;" xml:space="preserve">
<g>
	<g>
		<path d="M311.165,109.938h-29.971V79.965c0-4.319-3.502-7.821-7.821-7.821h-34.484c-4.319,0-7.821,3.502-7.821,7.821v29.972
			h-29.972c-4.319,0-7.821,3.502-7.821,7.821v34.483c0,4.319,3.502,7.821,7.821,7.821h29.972v29.972
			c0,4.319,3.502,7.821,7.821,7.821h34.483c4.319,0,7.821-3.502,7.821-7.821v-29.972h29.972c4.319,0,7.821-3.502,7.821-7.821
			v-34.483C318.985,113.44,315.484,109.938,311.165,109.938z M303.344,144.42h-29.971c-4.319,0-7.821,3.502-7.821,7.821v29.972
			h-18.843v-29.972c0-4.319-3.502-7.821-7.821-7.821h-29.972v-18.842h29.972c4.319,0,7.821-3.502,7.821-7.821V87.785h18.842v29.972
			c0,4.319,3.502,7.821,7.821,7.821h29.972V144.42z"/>
	</g>
</g>
<g>
	<g>
		<path d="M504.179,484.266h-42.377V221.755h42.131c3.337,0,6.306-2.117,7.393-5.271c1.088-3.153,0.055-6.651-2.571-8.708
			L260.951,13.755c-2.832-2.217-6.81-2.217-9.643,0L3.506,207.777c-2.627,2.057-3.66,5.554-2.571,8.708
			c1.088,3.154,4.056,5.271,7.393,5.271h41.87v176.757c0,4.319,3.502,7.821,7.821,7.821s7.821-3.502,7.821-7.821V221.76h380.322
			v262.506H211.247V293.7c0-4.319-3.502-7.821-7.821-7.821H94.979c-4.319,0-7.821,3.502-7.821,7.821v190.566H65.839v-59.946
			c0-4.319-3.502-7.821-7.821-7.821s-7.821,3.502-7.821,7.821v59.946H7.821c-4.319,0-7.821,3.502-7.821,7.821
			s3.502,7.821,7.821,7.821h50.198H94.98h108.448h250.555h50.197c4.319,0,7.821-3.502,7.821-7.821S508.498,484.266,504.179,484.266z
			 M195.606,484.266h-92.807V301.521h92.807V484.266z M31.002,206.114L256.13,29.846l225.129,176.268H31.002z"/>
	</g>
</g>
<g>
	<g>
		<path d="M417.02,285.879h-37.278c-4.319,0-7.821,3.502-7.821,7.821s3.502,7.821,7.821,7.821H409.2v102.12h-167.19v-102.12h112.055
			c4.319,0,7.821-3.502,7.821-7.821s-3.502-7.821-7.821-7.821H234.188c-4.319,0-7.821,3.502-7.821,7.821v117.761
			c0,4.319,3.502,7.821,7.821,7.821H417.02c4.319,0,7.821-3.502,7.821-7.821V293.7C424.841,289.381,421.339,285.879,417.02,285.879z
			"/>
	</g>
</g>
<g>
	<g>
		<path d="M177.154,372.733c-4.319,0-7.821,3.502-7.821,7.821v24.679c0,4.319,3.502,7.821,7.821,7.821s7.821-3.502,7.821-7.821
			v-24.679C184.975,376.234,181.473,372.733,177.154,372.733z"/>
	</g>
</g>
<g>
</g>
<g>
</g>
<g>
</g>
<g>
</g>
<g>
</g>
<g>
</g>
<g>
</g>
<g>
</g>
<g>
</g>
<g>
</g>
<g>
</g>
<g>
</g>
<g>
</g>
<g>
</g>
<g>
</g>
</svg>
