<svg xmlns="http://www.w3.org/2000/svg" viewBox="0 0 500 500"><g id="freepik--background-complete--inject-15"><rect y="382.4" width="500" height="0.25" style="fill:#ebebeb"></rect><rect x="416.78" y="398.49" width="33.12" height="0.25" style="fill:#ebebeb"></rect><rect x="322.53" y="401.21" width="8.69" height="0.25" style="fill:#ebebeb"></rect><rect x="396.59" y="389.21" width="19.19" height="0.25" style="fill:#ebebeb"></rect><rect x="52.46" y="390.89" width="43.19" height="0.25" style="fill:#ebebeb"></rect><rect x="104.56" y="390.89" width="6.33" height="0.25" style="fill:#ebebeb"></rect><rect x="131.47" y="395.11" width="93.68" height="0.25" style="fill:#ebebeb"></rect><path d="M237,337.8H43.91a5.71,5.71,0,0,1-5.7-5.71V60.66A5.71,5.71,0,0,1,43.91,55H237a5.71,5.71,0,0,1,5.71,5.71V332.09A5.71,5.71,0,0,1,237,337.8ZM43.91,55.2a5.46,5.46,0,0,0-5.45,5.46V332.09a5.46,5.46,0,0,0,5.45,5.46H237a5.47,5.47,0,0,0,5.46-5.46V60.66A5.47,5.47,0,0,0,237,55.2Z" style="fill:#ebebeb"></path><path d="M453.31,337.8H260.21a5.72,5.72,0,0,1-5.71-5.71V60.66A5.72,5.72,0,0,1,260.21,55h193.1A5.71,5.71,0,0,1,459,60.66V332.09A5.71,5.71,0,0,1,453.31,337.8ZM260.21,55.2a5.47,5.47,0,0,0-5.46,5.46V332.09a5.47,5.47,0,0,0,5.46,5.46h193.1a5.47,5.47,0,0,0,5.46-5.46V60.66a5.47,5.47,0,0,0-5.46-5.46Z" style="fill:#ebebeb"></path><rect x="55.41" y="308.18" width="86.42" height="71" transform="translate(197.23 687.36) rotate(180)" style="fill:#e0e0e0"></rect><path d="M54.82,309.88v67.6H51.35v3.71h94.54v-3.71H143.3v-67.6h2.59v-3.71H51.35v3.71Zm68.62,67.6h-5.88v-67.6h5.88Zm2.7-67.6H132v67.6h-5.88Zm-11.28,67.6H109v-67.6h5.87Zm-8.57,0h-5.88v-67.6h5.88Zm-8.58,0H91.83v-67.6h5.88Zm-8.58,0H83.25v-67.6h5.88Zm-8.58,0H74.68v-67.6h5.87Zm-8.57,0H66.1v-67.6H72Zm68.61,0h-5.87v-67.6h5.87Zm-83.07-67.6H63.4v67.6H57.52Z" style="fill:#ebebeb"></path><rect x="55.41" y="232.82" width="86.42" height="71" transform="translate(197.23 536.64) rotate(180)" style="fill:#e0e0e0"></rect><path d="M54.82,234.52v67.6H51.35v3.71h94.54v-3.71H143.3v-67.6h2.59v-3.71H51.35v3.71Zm68.62,67.6h-5.88v-67.6h5.88Zm2.7-67.6H132v67.6h-5.88Zm-11.28,67.6H109v-67.6h5.87Zm-8.57,0h-5.88v-67.6h5.88Zm-8.58,0H91.83v-67.6h5.88Zm-8.58,0H83.25v-67.6h5.88Zm-8.58,0H74.68v-67.6h5.87Zm-8.57,0H66.1v-67.6H72Zm68.61,0h-5.87v-67.6h5.87Zm-83.07-67.6H63.4v67.6H57.52Z" style="fill:#f0f0f0"></path><rect x="55.41" y="157.93" width="86.42" height="71" transform="translate(197.23 386.86) rotate(180)" style="fill:#e6e6e6"></rect><path d="M54.82,159.63v67.6H51.35v3.71h94.54v-3.71H143.3v-67.6h2.59v-3.71H51.35v3.71Zm68.62,67.6h-5.88v-67.6h5.88Zm2.7-67.6H132v67.6h-5.88Zm-11.28,67.6H109v-67.6h5.87Zm-8.57,0h-5.88v-67.6h5.88Zm-8.58,0H91.83v-67.6h5.88Zm-8.58,0H83.25v-67.6h5.88Zm-8.58,0H74.68v-67.6h5.87Zm-8.57,0H66.1v-67.6H72Zm68.61,0h-5.87v-67.6h5.87Zm-83.07-67.6H63.4v67.6H57.52Z" style="fill:#f5f5f5"></path><rect x="159.95" y="308.18" width="86.42" height="71" transform="translate(406.31 687.36) rotate(180)" style="fill:#e0e0e0"></rect><path d="M159.36,309.88v67.6h-3.47v3.71h94.53v-3.71h-2.59v-67.6h2.59v-3.71H155.89v3.71ZM228,377.48H222.1v-67.6H228Zm2.7-67.6h5.88v67.6h-5.88Zm-11.28,67.6h-5.88v-67.6h5.88Zm-8.58,0H205v-67.6h5.87Zm-8.57,0h-5.88v-67.6h5.88Zm-8.58,0h-5.88v-67.6h5.88Zm-8.58,0h-5.88v-67.6h5.88Zm-8.58,0h-5.87v-67.6h5.87Zm68.62,0h-5.87v-67.6h5.87Zm-83.07-67.6h5.88v67.6h-5.88Z" style="fill:#ebebeb"></path><rect x="159.95" y="232.82" width="86.42" height="71" transform="translate(406.31 536.64) rotate(180)" style="fill:#e0e0e0"></rect><path d="M159.36,234.52v67.6h-3.47v3.71h94.53v-3.71h-2.59v-67.6h2.59v-3.71H155.89v3.71ZM228,302.12H222.1v-67.6H228Zm2.7-67.6h5.88v67.6h-5.88Zm-11.28,67.6h-5.88v-67.6h5.88Zm-8.58,0H205v-67.6h5.87Zm-8.57,0h-5.88v-67.6h5.88Zm-8.58,0h-5.88v-67.6h5.88Zm-8.58,0h-5.88v-67.6h5.88Zm-8.58,0h-5.87v-67.6h5.87Zm68.62,0h-5.87v-67.6h5.87Zm-83.07-67.6h5.88v67.6h-5.88Z" style="fill:#f0f0f0"></path><rect x="159.95" y="157.93" width="86.42" height="71" transform="translate(406.31 386.86) rotate(180)" style="fill:#e6e6e6"></rect><path d="M159.36,159.63v67.6h-3.47v3.71h94.53v-3.71h-2.59v-67.6h2.59v-3.71H155.89v3.71ZM228,227.23H222.1v-67.6H228Zm2.7-67.6h5.88v67.6h-5.88Zm-11.28,67.6h-5.88v-67.6h5.88Zm-8.58,0H205v-67.6h5.87Zm-8.57,0h-5.88v-67.6h5.88Zm-8.58,0h-5.88v-67.6h5.88Zm-8.58,0h-5.88v-67.6h5.88Zm-8.58,0h-5.87v-67.6h5.87Zm68.62,0h-5.87v-67.6h5.87Zm-83.07-67.6h5.88v67.6h-5.88Z" style="fill:#f5f5f5"></path><circle cx="247.75" cy="91.54" r="23.55" transform="translate(7.84 202) rotate(-45)" style="fill:#e0e0e0"></circle><circle cx="247.75" cy="91.54" r="20.03" transform="translate(-9.58 151.05) rotate(-33.3)" style="fill:#f0f0f0"></circle><polyline points="248.7 77.8 248.7 91.8 257.98 86.55" style="fill:#f0f0f0;stroke:#e0e0e0;stroke-linecap:round;stroke-linejoin:round;stroke-width:2px"></polyline><rect x="105.21" y="69.67" width="46.25" height="61.26" style="fill:#ebebeb"></rect><rect x="107.18" y="71.56" width="42.31" height="57.48" style="fill:#f5f5f5"></rect><path d="M134.09,108.46c.81-3.57,8.47-5.24,11-2.31s-.14,8.36-4.91,8.57C135.68,114.92,132.86,113.86,134.09,108.46Z" style="fill:#ebebeb"></path><path d="M138.73,102.35c-2.28,0-3-5.41-1.16-5.88S141.77,102.3,138.73,102.35Z" style="fill:#ebebeb"></path><path d="M143.41,102.35c-.82-.43-2.5-5.06-.47-5.35S147.46,104.48,143.41,102.35Z" style="fill:#ebebeb"></path><path d="M133.52,104.65c.48-.3,1.24-4.74-1.64-5.25S130.79,106.36,133.52,104.65Z" style="fill:#ebebeb"></path><path d="M132.2,110.33c1-1.54-.4-4.28-2.27-4S130.41,113.14,132.2,110.33Z" style="fill:#ebebeb"></path><path d="M118.24,107.36c.37-1.65,3.92-2.42,5.12-1.07s-.07,3.87-2.28,4S117.67,109.86,118.24,107.36Z" style="fill:#ebebeb"></path><path d="M120.39,104.53c-1.06,0-1.37-2.51-.54-2.72S121.8,104.51,120.39,104.53Z" style="fill:#ebebeb"></path><path d="M122.55,104.53c-.37-.2-1.15-2.34-.21-2.48S124.43,105.52,122.55,104.53Z" style="fill:#ebebeb"></path><path d="M118,105.6c.23-.14.58-2.2-.75-2.44S116.71,106.39,118,105.6Z" style="fill:#ebebeb"></path><path d="M117.36,108.23c.46-.72-.18-2-1-1.88S116.53,109.53,117.36,108.23Z" style="fill:#ebebeb"></path><path d="M122.15,93.31c.37-1.66,3.92-2.43,5.12-1.07s-.07,3.87-2.28,4S121.58,95.81,122.15,93.31Z" style="fill:#ebebeb"></path><path d="M124.3,90.47c-1.06,0-1.37-2.5-.54-2.72S125.71,90.45,124.3,90.47Z" style="fill:#ebebeb"></path><path d="M126.46,90.47c-.37-.2-1.15-2.34-.21-2.47S128.34,91.46,126.46,90.47Z" style="fill:#ebebeb"></path><path d="M121.88,91.54c.23-.14.58-2.2-.75-2.43S120.62,92.33,121.88,91.54Z" style="fill:#ebebeb"></path><path d="M121.27,94.17c.46-.71-.18-2-1-1.87S120.44,95.47,121.27,94.17Z" style="fill:#ebebeb"></path><path d="M136.55,89c.38-1.66,3.93-2.43,5.12-1.07s-.06,3.87-2.27,4S136,91.46,136.55,89Z" style="fill:#ebebeb"></path><path d="M138.7,86.12c-1.06,0-1.37-2.5-.54-2.72S140.11,86.1,138.7,86.12Z" style="fill:#ebebeb"></path><path d="M140.87,86.12c-.38-.2-1.16-2.34-.22-2.47S142.74,87.11,140.87,86.12Z" style="fill:#ebebeb"></path><path d="M136.29,87.19c.22-.14.57-2.2-.76-2.43S135,88,136.29,87.19Z" style="fill:#ebebeb"></path><path d="M135.68,89.82c.45-.71-.19-2-1.05-1.87S134.85,91.12,135.68,89.82Z" style="fill:#ebebeb"></path><rect x="304.23" y="115.96" width="60.5" height="80.14" style="fill:#f5f5f5"></rect><rect x="306.81" y="118.43" width="55.35" height="75.19" style="fill:#e0e0e0"></rect><path d="M319.68,191h9.13V159.77h0a9.13,9.13,0,0,0-9.13,9.13Z" style="fill:#ebebeb"></path><path d="M317.14,191h11.67v-2.67a4.49,4.49,0,0,0-4.5-4.49h0a7.17,7.17,0,0,0-7.17,7.16Z" style="fill:#f5f5f5"></path><rect x="325.32" y="156.03" width="20.73" height="34.03" style="fill:#f5f5f5"></rect><path d="M350.49,190.06h-8.88V159.67h0a8.87,8.87,0,0,1,8.88,8.88Z" style="fill:#ebebeb"></path><path d="M353.67,191H342v-2.67a4.49,4.49,0,0,1,4.5-4.49h0a7.16,7.16,0,0,1,7.16,7.16Z" style="fill:#f5f5f5"></path><path d="M323.86,135c-2.78-2.14-4.72-6.66-6.3-12.21,7.88.85,13.37,3.31,15.26,8.19Z" style="fill:#f0f0f0"></path><path d="M319.13,124.24a21.65,21.65,0,0,0,4.73,9.67l4.48-2.92Z" style="fill:#e0e0e0"></path><path d="M315.74,149.43c0-5.11,6.05-14.8,10-17.4s13.51-3.51,17.3-.65,6.12,14.29,6.12,18.7-1,5.1-3.29,7.54-11.55.78-16.92,0S315.74,154.55,315.74,149.43Z" style="fill:#f0f0f0"></path><path d="M335.47,141.64c.2,1.23-.14,2.31-.75,2.41s-1.28-.81-1.48-2.05.14-2.31.75-2.41S335.27,140.41,335.47,141.64Z" style="fill:#e0e0e0"></path><path d="M324.09,140.6c.2,1.24-.14,2.32-.76,2.42s-1.28-.82-1.48-2.06.14-2.31.76-2.41S323.89,139.37,324.09,140.6Z" style="fill:#e0e0e0"></path><polygon points="319.99 144.44 323.86 145.34 321.8 147.88 319.99 144.44" style="fill:#e0e0e0"></polygon><path d="M323.43,149.37c-.51.06,1.85,4.08,0,3.74a1.88,1.88,0,0,0,1.8.1s1.12,3,2.32,3,.23-3.13.23-3.13,2.64-.25,3.27-1.11c0,0-6.88,2.16-7.62-2.59Z" style="fill:#e0e0e0"></path><path d="M338.06,132.62l7.55,11L347,138.1c.85-4.28-.48-9.26-3.64-14.84C340.83,126.43,338.84,129.56,338.06,132.62Z" style="fill:#f0f0f0"></path><path d="M342.65,126.77c-1.29.9-2.5,3.94-3.7,7.14l4.7,6.87Z" style="fill:#e0e0e0"></path><rect x="381.34" y="115.96" width="60.5" height="80.14" style="fill:#f5f5f5"></rect><rect x="383.92" y="118.43" width="55.35" height="75.19" style="fill:#ebebeb"></rect><path d="M398.09,157.38c-1.33,0-3.31,13.07-3.31,13.07a45.28,45.28,0,0,1-5.57,1.66c-2.79.6-2.79,7.21-2.79,7.21h11.67s3.76-7.67,3.85-9.92-.51-7.81-1.51-9.91S399.43,157.38,398.09,157.38Z" style="fill:#f5f5f5"></path><path d="M400.51,148.87S396.85,159.39,398,167s8,12.32,8,12.32h25.64s5.28-3.39,5.2-6.51.81-5.61-3.1-8.72-14.12-3.2-14.12-3.2l-6-10.42Z" style="fill:#fafafa"></path><path d="M410.18,157.38c-2.41,0-6,13.07-6,13.07s-5,1.05-10,1.66-5,7.21-5,7.21h21s6.77-7.67,6.93-9.92-.93-7.81-2.73-9.91S412.58,157.38,410.18,157.38Z" style="fill:#f0f0f0"></path><path d="M434,165.5c-1.33,0-3.31,8.86-3.31,8.86s-2.77.71-5.56,1.12-2.8,4.89-2.8,4.89H434s3.76-5.2,3.85-6.73-.51-5.29-1.51-6.72S435.33,165.5,434,165.5Z" style="fill:#f0f0f0"></path><polygon points="412.72 140.92 426.82 135.07 422.36 147.04 412.72 140.92" style="fill:#fafafa"></polygon><polygon points="424.85 137.77 419.77 145.4 421.79 146.68 424.85 137.77" style="fill:#e0e0e0"></polygon><path d="M419.36,139.8c4.3,3.25,8.77,5.55,4.35,11.74,0,0,5.11,3.37,2.22,5.93s-9.74,4.89-15,3.19-10.9-8.54-10.46-14S412.06,134.26,419.36,139.8Z" style="fill:#fafafa"></path><polygon points="425.17 154.67 421.79 152.9 422.71 156.27 425.17 154.67" style="fill:#e0e0e0"></polygon><path d="M423.13,155.12a4.84,4.84,0,0,1-3.89,2.54c-2.95.37-3.49-2.69-3.49-2.69s-1,4.22.95,5,2.38-1.55,2.38-1.55a5.53,5.53,0,0,0,4.25,0,4.28,4.28,0,0,1-2.39-.39S423.28,156.71,423.13,155.12Z" style="fill:#e0e0e0"></path><ellipse cx="417.24" cy="147.87" rx="1" ry="0.5" transform="translate(33.38 368.32) rotate(-49.38)" style="fill:#e0e0e0"></ellipse><path d="M422.73,150.52c-.35.41-.48.9-.27,1.08s.67,0,1-.43.48-.91.27-1.09S423.09,150.1,422.73,150.52Z" style="fill:#e0e0e0"></path><polygon points="404.38 140.9 417.7 129.62 416.92 141.37 407.96 146.05 404.38 140.9" style="fill:#fafafa"></polygon><polygon points="415.96 133.32 409.48 145.25 415.96 141.88 415.96 133.32" style="fill:#e0e0e0"></polygon></g><g id="freepik--Shadow--inject-15"><ellipse id="freepik--path--inject-15" cx="250" cy="416.24" rx="193.89" ry="11.32" style="fill:#f5f5f5"></ellipse></g><g id="freepik--Dog--inject-15"><path d="M302,247.43l-23.12-.35a53.13,53.13,0,0,0-1.53,7.06c-1.15,1.5-2.66,3.49-3.78,3.65,1.11-.16,2.71.14,3.22-.86-1.08,2.13-2.16,3.53-2,5.92l1.64-2a15.6,15.6,0,0,0-1.17,8.37,3.48,3.48,0,0,0,.89-2.32,15.38,15.38,0,0,0,2.86,6.4c.15-.53.29-1.09.43-1.66a11.82,11.82,0,0,0,8.2,5.47c-3.84,4.39-13.77-3.57-19,2-1.4,1.49-2.45,3.59-1.58,5.78s38,.73,42.38-5.64C306.28,271.1,302,247.43,302,247.43Z" style="fill:#1B93AA"></path><path d="M302,247.43l-23.12-.35a53.13,53.13,0,0,0-1.53,7.06c-1.15,1.5-2.66,3.49-3.78,3.65,1.11-.16,2.71.14,3.22-.86-1.08,2.13-2.16,3.53-2,5.92l1.64-2a15.6,15.6,0,0,0-1.17,8.37,3.48,3.48,0,0,0,.89-2.32,15.38,15.38,0,0,0,2.86,6.4c.15-.53.29-1.09.43-1.66a11.82,11.82,0,0,0,8.2,5.47c-3.84,4.39-13.77-3.57-19,2-1.4,1.49-2.45,3.59-1.58,5.78s38,.73,42.38-5.64C306.28,271.1,302,247.43,302,247.43Z" style="opacity:0.2"></path><path d="M245.25,224.22l-.53,9.74a42.55,42.55,0,0,0,6,17.44c2,8.64-.31,18.89-3.34,24-.65,1.08-4.58,2.69-5.62,3.09s-1.65,4-.49,6.29,10.08-.31,13.56-.12-1.06.81,3.08-.19a2.5,2.5,0,0,0,1.75-3c-1.39-4.89,1.39-15.53,2.5-27.46,3.71-10.67,2.17-18.15,2.17-18.15Z" style="fill:#1B93AA"></path><path d="M245.25,224.22l-.53,9.74a42.55,42.55,0,0,0,6,17.44c2,8.64-.31,18.89-3.34,24-.65,1.08-4.58,2.69-5.62,3.09s-1.65,4-.49,6.29,10.08-.31,13.56-.12-1.06.81,3.08-.19a2.5,2.5,0,0,0,1.75-3c-1.39-4.89,1.39-15.53,2.5-27.46,3.71-10.67,2.17-18.15,2.17-18.15Z" style="opacity:0.2"></path><path d="M398.33,284.52c1.48-.58,2.37-1,2.37-1s-9.94-6.59-18.45-8.39-27.47,1.4-33.63-6.27a78.73,78.73,0,0,1-7.11-10.13c-1.12-2-3.73-3.92-5.14-5.72-2-2.57-3.13-2.5-5-4.61,0,0-1.57-.55.12,11.93s5.81,20.49,14.76,24.66c4.82,2.25,19.13,6.08,28.78,5.74,4.15-.15,10.57-1.61,15.31-3.11-.43-.4-2.06-.55-2.84-2.39a7.67,7.67,0,0,0,6.12,1.13,2.47,2.47,0,0,1-2-1.82A8.32,8.32,0,0,0,398.33,284.52Z" style="fill:#1B93AA"></path><path d="M362.7,283.07c.41,1,.83,2,1.24,3a5.07,5.07,0,0,1-4-2.93c0,1,0,2-.05,3l-19.54-14c-.62-.45-3.34-5-4.1-5.12-1.39-.2-5-4.29-5.55-3,0,.08,4.28,9.42,4.25,9.49A22.38,22.38,0,0,0,346.21,285c4.82,2.25,19.13,6.08,28.78,5.74a33.69,33.69,0,0,0,4.62-.54,25.12,25.12,0,0,0-6.56-2.27C369.26,287.09,365.12,286.12,362.7,283.07Z" style="opacity:0.1"></path><path d="M251.5,172.6S237.1,188,238,213.48,282.54,257,282.54,257l7.08,15.15a15.64,15.64,0,0,0,14.23,9l30.11-.1c7.61-25.35-18.32-67.7-31.21-81.21s-15.11-36.46-15.11-36.46Z" style="fill:#1B93AA"></path><path d="M282.54,257l3.68-17.22L298,256.54l23.86,7.3L318.29,282l-20.9-2.18C290.43,277.76,287.08,266.76,282.54,257Z" style="opacity:0.1"></path><path d="M286.22,141.21c-4.11-5.61-3-5.11-9.22-8.24a47,47,0,0,0-9.31-4.07c-3-1-13.64-.45-13.95,2.73-2.46-1.18-11-5.51-13.5-6.69-4,4.2-4.77,14.84,4,19.27l-2.17-.6c-1.62-.13-2.72,1.85-2.41,3.44s1.48,2.84,2.48,4.11a24.77,24.77,0,0,1,5.11,18.31c-.38,3-1.93,10.86-.17,13.34,2.23,3.15,7.66-1.83,11.4-2.79,6.2-1.58,12.41-3.49,17.84-6.87C287.25,166.32,294.82,152.94,286.22,141.21Z" style="fill:#1B93AA"></path><path d="M256.28,152.88c-2.21.32-4.39-.61-6.44-1.51l-10.23-4.52a3.24,3.24,0,0,1,1.13-2.85,1.85,1.85,0,0,1,1.29-.39c.73.2,1.46.39,2.18.6-8.68-4.41-8-15.07-4-19.27l2.18,1-1.7,3.29c-3.73,9.43,11,17.09,19.31,19C260.59,150.45,258.48,152.56,256.28,152.88Z" style="opacity:0.2"></path><path d="M257.6,134s3.12-.28,4.28.27,2,2.7,2,2.7.45-2.85-1.58-3.9S257.6,134,257.6,134Z" style="fill:#263238"></path><path d="M249.52,169.64c1.2-1.6,3.14-2.85,5.12-2.53a2.13,2.13,0,0,1-1.83-2.75,2.15,2.15,0,0,1,2.7-1.12c-1.28-1-.95-3.49.51-4.46,1.63-1.08,3.79-.79,5.68-.32l-.08,0a121.86,121.86,0,0,0-17.22-5.29c-.35-.08-.7-.18-1.05-.27a24.88,24.88,0,0,1,3.87,16.6c-.17,1.38-.59,3.76-.82,6.17l.36-.67A32,32,0,0,1,249.52,169.64Z" style="opacity:0.1"></path><path d="M243.82,126.65,240,124.84c-1.29,1.35-1.82,3.21-2.44,5C240.11,130.2,242.31,128.7,243.82,126.65Z" style="fill:#263238"></path><path d="M287.31,161.68a10.12,10.12,0,0,0-1.5,3.16,1,1,0,0,0,0,.41c-1.52,3.39-4.59,6.2-9.16,8.36-10.67,5-26.11,4.78-30,3.32a1,1,0,0,0-.77,1.76l.1,0c4.68,1.74,20.63,1.77,31.55-3.39,5.49-2.59,9-6.11,10.55-10.47a5.06,5.06,0,0,1,1.3-2Z" style="fill:#263238"></path><path d="M278.43,175.86c-.19-1.08-.94-2.48-.16-3.25-1.65,1.64-2.63,3.07-4.88,3.66l1.36-2.12a15.38,15.38,0,0,1-7.4,3.62,3.35,3.35,0,0,1,1.88-1.53,14.84,14.84,0,0,1-6.77-.73c5-3.31,13.09-6.92,19.14-5.7C280.94,171.11,278.17,174.36,278.43,175.86Z" style="fill:#1B93AA"></path><path d="M259.07,179.06c0-1.09-.55-2.58.33-3.23-1.88,1.37-3.06,2.64-5.37,2.88l1.66-1.89a15.35,15.35,0,0,1-7.86,2.45,3.34,3.34,0,0,1,2.09-1.22,14.91,14.91,0,0,1-6.59-1.74c5.4-2.53,14-4.87,19.79-2.75C262.27,174.75,259,177.55,259.07,179.06Z" style="fill:#1B93AA"></path><path d="M296.25,159.69l1.25,1.07-1-7.59,1.73.27-1.91-4.91,2.3,1.19-2.53-3c-.39-1.54-1-5.71-5.47-8s-11.7-3.79-11.7-3.79-1.69,21.27.65,25.26,7.17,8.75,12.65,8.19c2.41-.25,3.53-4.19,4-8.63Z" style="fill:#1B93AA"></path><path d="M282.51,139.79c.77,3.92-1,14.72.37,18.43s6.27,8.5,6.27,8.5l3.11,1.6c-4.72.5-8.86-2.68-12.65-8.19-1.88-5.4-1.75-15.2-.65-25.26C279,134.87,281.74,135.88,282.51,139.79Z" style="opacity:0.2"></path><path d="M253.64,150.6a17,17,0,0,1-6.24-2.74c-1.15-1.44-2.36-3.87-4.35-5.46.15.06.29.11.43.18a21.42,21.42,0,0,0,12.36,6.28S257.46,151.12,253.64,150.6Z" style="fill:#263238"></path><path d="M247.4,147.86c-1.07-.68-2.25-1.51-3.54-2.51l-.08-.07-.41-.32-.46-.37c-1.11-.88-2.49-.91-4.09-1.06a10,10,0,0,1-2.56-.33,2.16,2.16,0,0,1-1.55-1.86,2,2,0,0,1,1.57-1.75,4.26,4.26,0,0,1,2.46.29,14.79,14.79,0,0,1,4.31,2.52,5.48,5.48,0,0,1,.43.37C245.21,144.35,246.34,146.53,247.4,147.86Z" style="fill:#e8483f"></path><path d="M234.36,203.4c1.09-.07,2.62.34,3.19-.59-1.21,2-2.38,3.26-2.42,5.59l1.74-1.81a15.28,15.28,0,0,0-1.8,8,3.37,3.37,0,0,0,1.05-2.19,14.92,14.92,0,0,0,2.27,6.42c2.09-5.58,3.71-14.34,1.12-20C238.4,199.86,235.87,203.3,234.36,203.4Z" style="fill:#1B93AA"></path><path d="M239.59,187.66c1,.31,2.34,1.22,3.2.54-1.82,1.45-3.36,2.25-4.2,4.42l2.26-1.11a15.39,15.39,0,0,0-4.44,6.94,3.38,3.38,0,0,0,1.73-1.7,14.78,14.78,0,0,0-.06,6.81c3.87-4.53,8.39-12.19,7.88-18.35C244.59,185.72,241,188.09,239.59,187.66Z" style="fill:#1B93AA"></path><path d="M329.69,249.08l-23.12-.34A52.66,52.66,0,0,0,305,255.8c-1.15,1.49-2.67,3.48-3.78,3.64,1.11-.16,2.71.14,3.22-.86-1.08,2.13-2.17,3.53-2,5.92l1.64-2a15.7,15.7,0,0,0-1.18,8.37,3.43,3.43,0,0,0,.9-2.32,15.38,15.38,0,0,0,2.86,6.4c.15-.53.29-1.09.43-1.66a11.75,11.75,0,0,0,8.2,5.47c-3.84,4.39-13.77-3.57-19,2-1.39,1.48-2.44,3.58-1.57,5.77s38,.73,42.38-5.64C334,272.75,329.69,249.08,329.69,249.08Z" style="fill:#1B93AA"></path><path d="M273.11,252.3l-.89-22.72L267,226.35c-5.72-4-11.93-8.2-15.13-11.6l-5.42-10.2c-5.59,3.22-8.24,8-8,14.31C244.37,232.79,256.11,243.86,273.11,252.3Z" style="opacity:0.1"></path><path d="M277.93,287.06c-.46.16,0,.11,0,0Z" style="fill:#1B93AA"></path><path d="M286,238,267,226.35l-.05.94-.18-.31c-1,1.11-2.94,4.89-4.42,5.21,1.07-.23,2.64-.06,3.06-1.07-.9,2.15-1.86,3.58-1.56,5.89.48-.68,1-1.36,1.45-2a15.34,15.34,0,0,0-.58,8.22,3.39,3.39,0,0,0,.71-2.32,14.83,14.83,0,0,0,3.2,6c.06-.29.12-.6.18-.91a47.13,47.13,0,0,0,3.63,7.58c2,8.63-.31,18.88-3.34,24-.64,1.09-4.58,2.69-5.62,3.1s-1.65,4-.49,6.28,10.08-.31,13.57-.12c1.18.07,1.43.18,1.42.26.24-.08.71-.22,1.65-.45a2.49,2.49,0,0,0,1.75-3c-1.39-4.89,1.39-15.52,2.5-27.46C287.54,245.49,286,238,286,238Z" style="fill:#1B93AA"></path></g><g id="freepik--Table--inject-15"><rect x="208.94" y="287.44" width="203.97" height="7.68" style="fill:#1B93AA"></rect><polygon points="412.91 295.11 208.94 295.11 208.94 287.44 412.91 287.44 412.91 295.11 412.91 295.11" style="fill:#fff;opacity:0.6000000000000001;isolation:isolate"></polygon><rect x="208.94" y="287.44" width="203.97" height="3.84" style="opacity:0.2;isolation:isolate"></rect><path d="M416.71,288.44H205.14a2.17,2.17,0,0,1-2.16-2.17h0a2.16,2.16,0,0,1,2.16-2.16H416.71a2.16,2.16,0,0,1,2.16,2.16h0A2.17,2.17,0,0,1,416.71,288.44Z" style="fill:#1B93AA"></path><path d="M416.71,288.44H205.14a2.17,2.17,0,0,1-2.16-2.17h0a2.16,2.16,0,0,1,2.16-2.16H416.71a2.16,2.16,0,0,1,2.16,2.16h0A2.17,2.17,0,0,1,416.71,288.44Z" style="fill:#fff;opacity:0.6000000000000001;isolation:isolate"></path><rect x="208.94" y="295.11" width="10.28" height="122.03" style="fill:#1B93AA"></rect><rect x="208.94" y="295.02" width="10.28" height="122.12" style="fill:#fff;opacity:0.5"></rect><rect x="208.94" y="295.02" width="10.28" height="16.58" style="opacity:0.2"></rect><rect x="402.63" y="295.11" width="10.28" height="122.03" style="fill:#1B93AA"></rect><rect x="402.63" y="295.02" width="10.28" height="122.12" style="fill:#fff;opacity:0.5"></rect><rect x="402.63" y="295.02" width="10.28" height="16.58" style="opacity:0.2"></rect><rect x="271.88" y="295.11" width="10.28" height="122.03" style="fill:#1B93AA"></rect><rect x="271.88" y="295.02" width="10.28" height="122.12" style="fill:#fff;opacity:0.5"></rect><rect x="271.88" y="295.02" width="10.28" height="24" style="opacity:0.2"></rect><rect x="339.85" y="295.11" width="10.28" height="122.03" style="fill:#1B93AA"></rect><rect x="339.85" y="295.02" width="10.28" height="122.12" style="fill:#fff;opacity:0.5"></rect><rect x="339.85" y="295.02" width="10.28" height="24" style="opacity:0.2"></rect></g><g id="freepik--Character--inject-15"><path d="M214.76,192.62l15.44-9a30.65,30.65,0,0,0,7.37-.34c4-.69,4.86-.73,4.38-3.88s.19-7.35-1-7.79-9.61,3.11-11.06,5.52l-15.59,5.57Z" style="fill:#e4897b"></path><path d="M169,177.37v18s3.84,1.27,8.61,2.6c5.47,1.52,12.16,3.12,15.64,3,6.5-.32,36.59-15.7,36.59-15.7l-2.18-7.86s-33.91,12.38-36.91,11.79S169,177.37,169,177.37Z" style="fill:#1B93AA"></path><path d="M169,186.14v9.24s3.84,1.27,8.61,2.6C175.87,192.62,171.48,188.25,169,186.14Z" style="opacity:0.2;isolation:isolate"></path><path d="M165,241.44s10.84,57.76,13.73,81.48c3.78,30.94,22.35,84.83,22.35,84.83h-5.93s-25.15-45.49-29.39-80.1c-17.3-35.37-18.7-78.93-18.7-78.93Z" style="fill:#e4897b"></path><path d="M153.73,240.52s-1.35,58.75-3.42,82.56c-2.71,31.05,4,85.27,4,85.27h-5.55S133.63,359.76,136.63,325c-9.61-38.19-2-81.09-2-81.09Z" style="fill:#e4897b"></path><path d="M150.75,184c-8.14-1-10.58-4.52-10.58-4.52,5.16-4.87.87-13.31.87-13.31l9.79,1.83a30.63,30.63,0,0,0-.38,4.13c-.07,5.94,2.61,6,2.61,6C154.78,181.34,150.75,184,150.75,184Z" style="fill:#e4897b"></path><path d="M168.85,226.85l-33,2.85a117.34,117.34,0,0,0-3.51-24.24c-.79-3.16-1.78-6.69-3.05-10.77-.68-2.18-1.43-4.52-2.27-7-.63-1.91-1.31-3.94-2.06-6.08a98,98,0,0,1,13.7-3.31,105.2,105.2,0,0,1,14.82-1.56c6.42,0,13.8.67,13.8.67s1,.25,1.71,7.06C169.58,190.82,170.17,203.6,168.85,226.85Z" style="fill:#1B93AA"></path><path d="M168.69,231.8l-33,2.72c-.52-8.2-.91-19.28-3.38-29.06-.79-3.16-1.78-6.69-3.05-10.77-.68-2.18-1.43-4.52-2.27-7-.63-1.91-1.31-3.94-2.06-6.08a98,98,0,0,1,13.7-3.31,105.2,105.2,0,0,1,14.82-1.56c6.42,0,13.8.67,13.8.67s1,.25,1.71,7.06C169.58,190.82,170,208.55,168.69,231.8Z" style="fill:#2e353a"></path><path d="M150.83,168a30.63,30.63,0,0,0-.38,4.13c-6.61,0-9.41-6-9.41-6Z" style="opacity:0.2;isolation:isolate"></path><path d="M168.69,231.8,189.5,354s-50.35,6-67.41,2.5c0,0-4.19-87.48,13.62-122Z" style="fill:#1B93AA"></path><path d="M168.69,231.8,189.5,354s-50.35,6-67.41,2.5c0,0-4.19-87.48,13.62-122Z" style="fill:#fff;opacity:0.4;isolation:isolate"></path><path d="M125,181.57l12-3.13,12.91,54.91-3.59,136.16-31.5-5.68c2.6-50,6.77-96.88,17-132Z" style="fill:#1B93AA"></path><path d="M169,177.37c6.06,17,5.2,35.46,2,54.43l31.5,120L180,366.5,165.15,231.8c-.29-19.15.21-38.48-10.82-55.18Z" style="fill:#1B93AA"></path><path d="M192.91,405.75c0-.73,8.93,0,8.93,0s5.36,5.69,10.65,7.05,2.26,4.5-3.69,4.37l-14.71-.31C189.86,416.8,192.58,413.26,192.91,405.75Z" style="fill:#263238"></path><path d="M146.33,405.75c0-.73,8.93,0,8.93,0s5.36,5.69,10.65,7.05,2.26,4.5-3.69,4.37l-14.71-.31C143.28,416.8,146,413.26,146.33,405.75Z" style="fill:#263238"></path><polygon points="141.04 177.37 149.87 179.82 153.01 176.07 141.04 177.37" style="fill:#e4897b"></polygon><polygon points="149.87 179.82 145.03 185.97 136.9 178.89 141.04 174.05 149.87 179.82" style="fill:#1B93AA"></polygon><polygon points="149.87 179.82 155.52 184 154.34 176.62 151.07 172.88 149.87 179.82" style="fill:#1B93AA"></polygon><polygon points="133.07 179.48 132.16 194.07 137.65 199.03 133.15 203.2 149.49 247.73 149.87 233.35 136.9 177.95 133.07 179.48" style="opacity:0.2"></polygon><path d="M154.33,176.62l3,.13,10.58,12.94-2.76,4.5,3.87,3,.43,73.57-4.3-39C164.76,205.61,162.8,188.49,154.33,176.62Z" style="opacity:0.2"></path><polygon points="129.49 214.94 132.16 201.93 128.61 208.44 129.49 214.94" style="opacity:0.2"></polygon><path d="M129.2,241.44l7.7,20.84-1.57,1.38.85,1.89s6.27,11.78,4.86,13.5-10.93-1.33-10.93-1.33L126.38,254Z" style="opacity:0.1"></path><path d="M120.58,249.92l7.5,15.84a30.44,30.44,0,0,0,0,7.38c.5,4,.5,4.89,3.67,4.56s7.33.53,7.83-.64-2.67-9.74-5-11.31l-4.85-15.83Z" style="fill:#e4897b"></path><path d="M122.17,222.89a58,58,0,0,0,5.4-9.61c2.7-5.85,4.59-11.35,4.59-11.35l-2-5.64-5.23-14.72s-3.45,4.81-8.68,22.86l0-.09-1,3.56c-.76,2.64-1.6,5.5-2.38,8.65v.09l-.58,2.15c-.09.17-.18.34-.29.51h0v.55l-1.85,6.82,15,35.6h9.67Z" style="fill:#1B93AA"></path><path d="M130.08,145.12a5.1,5.1,0,0,1,4.54-3.07h5l-3.78,9.88.23,12.38-1.68-3.77-.46,3.77s-4-8.58-4.28-11.11S128.85,148.19,130.08,145.12Z" style="fill:#263238"></path><path d="M145.42,139.77c8.51-.46,11.5,3.95,12.61,12.68,1.38,10.92-.63,18.84-11.4,17.08C132,167.15,131.29,140.55,145.42,139.77Z" style="fill:#e4897b"></path><path d="M152.5,152.28a17.81,17.81,0,0,0,2.67,3.39,2.35,2.35,0,0,1-2.19,1.09Z" style="fill:#a24e3f"></path><path d="M147.25,151.87c.05.7-.28,1.29-.74,1.33s-.89-.5-.95-1.2.28-1.29.75-1.33S147.2,151.17,147.25,151.87Z" style="fill:#2e353a"></path><path d="M146.12,150.72l1.47-.72S146.93,151.34,146.12,150.72Z" style="fill:#2e353a"></path><path d="M155.92,151c.05.7-.28,1.3-.74,1.33s-.89-.5-1-1.2.28-1.29.75-1.33S155.86,150.34,155.92,151Z" style="fill:#2e353a"></path><path d="M154.79,149.89l1.47-.71S155.6,150.52,154.79,149.89Z" style="fill:#2e353a"></path><path d="M146.84,146a4.43,4.43,0,0,0-3.62,1.49" style="fill:none;stroke:#2e353a;stroke-linecap:round;stroke-linejoin:round;stroke-width:0.7246800000000001px"></path><path d="M153,145.3a4,4,0,0,1,3.43.51" style="fill:none;stroke:#2e353a;stroke-linecap:round;stroke-linejoin:round;stroke-width:0.7246800000000001px"></path><path d="M151.92,160.17a21.14,21.14,0,0,0-.83,3c-.19,0-.37,0-.55,0-2.49-.11-3.61-1-4.1-1.92a3.16,3.16,0,0,1-.32-1.49,3.24,3.24,0,0,1,.11-.86,11.71,11.71,0,0,0,4.84,1.23C151.59,160.17,151.92,160.17,151.92,160.17Z" style="fill:#2e353a"></path><path d="M151.07,160.12l-.27.88c-2.34-.11-4-.51-4.68-1.25a3.24,3.24,0,0,1,.11-.86A11.71,11.71,0,0,0,151.07,160.12Z" style="fill:#fff"></path><path d="M150.54,163.16c-2.49-.11-3.61-1-4.1-1.92a8.08,8.08,0,0,1,2.75.67A3.06,3.06,0,0,1,150.54,163.16Z" style="fill:#de5753"></path><path d="M136.9,154.63s3.6-7.21,2.7-12.58c0,0,16.49-7.81,18.26,9.26,0,0,.82-15.29-13.83-14.83s-13.42,21.87-5.51,27.83C138.52,164.31,134.68,159.14,136.9,154.63Z" style="fill:#263238"></path><path d="M138.39,156.35a3.73,3.73,0,0,0-4.2-3.19c-2.62.43-3.59,5.91,3.05,6.86C138.19,160.15,138.67,159.2,138.39,156.35Z" style="fill:#e4897b"></path><path d="M134.62,142.05s-1.39-4.46,2.44-7,10.52-1.47,14.86,0,8.76,14.17,8.76,14.17a42.22,42.22,0,0,0-7.67-8.55l-12-.11-1.4,1.53Z" style="fill:#263238"></path><path d="M128.39,147c-7.66-3.92-17.45,3.37-13.34,9.26.63,8.68,6.36,8.95,9.77,3,5-4,3.65-7.44,1.71-10.84-.39,1.33.47,3.6-4.48,5.42l-1.13-.71c3.45-4.08,5.61-3,7.88-2.25Z" style="fill:#2e353a"></path><path d="M111,161.85c1.43-8.9,4.52-14.8,10.35-15.74l2.29-.27C117.57,147.14,113.53,152.85,111,161.85Z" style="fill:#2e353a"></path><path d="M114.56,161.19c-1.15-8.87,2.25-13.89,9.9-15.32l-3.93.41C114.42,148.6,112.84,153.84,114.56,161.19Z" style="fill:#2e353a"></path><path d="M128.33,146.37l.44,4.7a.87.87,0,0,0,.75.31.78.78,0,0,0,.64-.43l-.32-4.67a.78.78,0,0,0-.73-.5A1,1,0,0,0,128.33,146.37Z" style="fill:#1B93AA"></path><path d="M247.11,164.23c0,2.58-.19,5-1.88,5.92,1.53.89,1.89,3,1.88,5.55h.82V164.23Z" style="fill:#263238"></path><path d="M247.11,164.23c0,2.58-.19,5-1.88,5.92,1.53.89,1.89,3,1.88,5.55h.82V164.23Z" style="fill:#fff;opacity:0.6000000000000001"></path><path d="M135.23,157.79s2.19,10.84,3.89,12.61,7.85,4.06,11.95,2.48,7-2.47,8.21-5.43a6.09,6.09,0,0,0-.87-5.61v-2.11s2.87,4.48,1.86,7.68-4.53,5.41-9.19,6.64-11.81-.73-13.24-3.17-3.91-12.73-3.91-12.73Z" style="fill:#263238"></path><path d="M135.23,157.79s2.19,10.84,3.89,12.61,7.85,4.06,11.95,2.48,7-2.47,8.21-5.43a6.09,6.09,0,0,0-.87-5.61v-2.11s2.87,4.48,1.86,7.68-4.53,5.41-9.19,6.64-11.81-.73-13.24-3.17-3.91-12.73-3.91-12.73Z" style="fill:#fff;opacity:0.5"></path><path d="M200.19,240.52c-15.6,0-28.4-7.29-36.87-14-12.42-9.84-12.74-50.73-12.75-52.46h1c0,.42.33,42.15,12.38,51.68,9.8,7.77,25.51,16.35,44.6,13.08,16.34-2.8,18-5.38,24.84-16.23l.7-1.1c5.31-8.37,4.6-26.76,4.18-37.75-.18-4.69-.31-8.08,0-9.42,1.21-4.76,7.2-4.81,7.46-4.81v1s-5.48.06-6.49,4.06c-.31,1.2-.17,4.7,0,9.13.43,11.11,1.14,29.69-4.34,38.33l-.69,1.09c-7.06,11.16-8.74,13.81-25.52,16.68A50.58,50.58,0,0,1,200.19,240.52Z" style="fill:#263238"></path><g style="opacity:0.30000000000000004"><path d="M200.19,240.52c-15.6,0-28.4-7.29-36.87-14-12.42-9.84-12.74-50.73-12.75-52.46h1c0,.42.33,42.15,12.38,51.68,9.8,7.77,25.51,16.35,44.6,13.08,16.34-2.8,18-5.38,24.84-16.23l.7-1.1c5.31-8.37,4.6-26.76,4.18-37.75-.18-4.69-.31-8.08,0-9.42,1.21-4.76,7.2-4.81,7.46-4.81v1s-5.48.06-6.49,4.06c-.31,1.2-.17,4.7,0,9.13.43,11.11,1.14,29.69-4.34,38.33l-.69,1.09c-7.06,11.16-8.74,13.81-25.52,16.68A50.58,50.58,0,0,1,200.19,240.52Z" style="fill:#fff"></path></g></g><g id="freepik--Carrier--inject-15"><path d="M355.55,323.71l.93-8.83a2,2,0,0,1,2-1.8h21.6a2,2,0,0,1,2,1.8l.93,8.83,3.89-.41-.93-8.83a5.91,5.91,0,0,0-5.89-5.3h-21.6a5.92,5.92,0,0,0-5.9,5.3l-.93,8.83Z" style="fill:#1B93AA"></path><g style="opacity:0.30000000000000004;isolation:isolate"><path d="M355.55,323.71l.93-8.83a2,2,0,0,1,2-1.8h21.6a2,2,0,0,1,2,1.8l.93,8.83,3.89-.41-.93-8.83a5.91,5.91,0,0,0-5.89-5.3h-21.6a5.92,5.92,0,0,0-5.9,5.3l-.93,8.83Z"></path></g><path d="M274,365.39v5.2a3.61,3.61,0,0,0,3.61,3.61h.57l10.58,35.57a9.26,9.26,0,0,0,8.88,6.62H440.91a9.24,9.24,0,0,0,8.87-6.62l10.57-35.57h.58a3.61,3.61,0,0,0,3.61-3.61v-5.2a3.62,3.62,0,0,0-3.61-3.62h-.58L449.78,326.2a9.25,9.25,0,0,0-8.87-6.62H297.68a9.27,9.27,0,0,0-8.88,6.62l-10.58,35.57h-.57A3.61,3.61,0,0,0,274,365.39Z" style="fill:#1B93AA"></path><path d="M278.22,374.2l10.58,35.57a9.26,9.26,0,0,0,8.88,6.62H440.91a9.24,9.24,0,0,0,8.87-6.62l10.57-35.57Z" style="fill:#fff;opacity:0.30000000000000004;isolation:isolate"></path><g style="opacity:0.4;isolation:isolate"><path d="M383.68,351.8a1.12,1.12,0,0,0,.36-.05,1.3,1.3,0,0,0,.89-1.61l-6-21a1.3,1.3,0,1,0-2.5.72l6,21A1.31,1.31,0,0,0,383.68,351.8Z"></path></g><g style="opacity:0.4;isolation:isolate"><path d="M376,351.8a1.12,1.12,0,0,0,.36-.05,1.31,1.31,0,0,0,.9-1.61l-6-21a1.31,1.31,0,0,0-2.51.72l6,21A1.3,1.3,0,0,0,376,351.8Z"></path></g><g style="opacity:0.4;isolation:isolate"><path d="M368.41,351.8a1.16,1.16,0,0,0,.36-.05,1.3,1.3,0,0,0,.89-1.61l-6-21a1.3,1.3,0,0,0-1.61-.89,1.31,1.31,0,0,0-.9,1.61l6,21A1.31,1.31,0,0,0,368.41,351.8Z"></path></g><g style="opacity:0.4;isolation:isolate"><path d="M360.77,351.8a1.12,1.12,0,0,0,.36-.05,1.3,1.3,0,0,0,.89-1.61l-6-21a1.31,1.31,0,0,0-2.51.72l6,21A1.29,1.29,0,0,0,360.77,351.8Z"></path></g><g style="opacity:0.4;isolation:isolate"><path d="M353.13,351.8a1.12,1.12,0,0,0,.36-.05,1.3,1.3,0,0,0,.9-1.61l-6-21a1.31,1.31,0,0,0-2.51.72l6,21A1.31,1.31,0,0,0,353.13,351.8Z"></path></g><g style="opacity:0.4;isolation:isolate"><path d="M345.5,351.8a1.12,1.12,0,0,0,.36-.05,1.3,1.3,0,0,0,.89-1.61l-6-21a1.3,1.3,0,1,0-2.5.72l6,21A1.29,1.29,0,0,0,345.5,351.8Z"></path></g><g style="opacity:0.4;isolation:isolate"><path d="M383.68,384.17a1.49,1.49,0,0,1,.36.05,1.3,1.3,0,0,1,.89,1.61l-6,21a1.3,1.3,0,1,1-2.5-.72l6-21A1.31,1.31,0,0,1,383.68,384.17Z"></path></g><g style="opacity:0.4;isolation:isolate"><path d="M376,384.17a1.49,1.49,0,0,1,.36.05,1.31,1.31,0,0,1,.9,1.61l-6,21a1.31,1.31,0,1,1-2.51-.72l6-21A1.3,1.3,0,0,1,376,384.17Z"></path></g><g style="opacity:0.4;isolation:isolate"><path d="M368.41,384.17a1.56,1.56,0,0,1,.36.05,1.3,1.3,0,0,1,.89,1.61l-6,21a1.31,1.31,0,1,1-2.51-.72l6-21A1.31,1.31,0,0,1,368.41,384.17Z"></path></g><g style="opacity:0.4;isolation:isolate"><path d="M360.77,384.17a1.49,1.49,0,0,1,.36.05,1.3,1.3,0,0,1,.89,1.61l-6,21a1.31,1.31,0,1,1-2.51-.72l6-21A1.29,1.29,0,0,1,360.77,384.17Z"></path></g><g style="opacity:0.4;isolation:isolate"><path d="M353.13,384.17a1.49,1.49,0,0,1,.36.05,1.3,1.3,0,0,1,.9,1.61l-6,21a1.31,1.31,0,1,1-2.51-.72l6-21A1.31,1.31,0,0,1,353.13,384.17Z"></path></g><g style="opacity:0.4;isolation:isolate"><path d="M345.5,384.17a1.49,1.49,0,0,1,.36.05,1.3,1.3,0,0,1,.89,1.61l-6,21a1.3,1.3,0,1,1-2.5-.72l6-21A1.29,1.29,0,0,1,345.5,384.17Z"></path></g><g style="opacity:0.4;isolation:isolate"><path d="M430.48,351.8a1.12,1.12,0,0,0,.36-.05,1.3,1.3,0,0,0,.9-1.61l-6-21a1.3,1.3,0,0,0-1.61-.89,1.31,1.31,0,0,0-.9,1.61l6,21A1.31,1.31,0,0,0,430.48,351.8Z"></path></g><g style="opacity:0.4;isolation:isolate"><path d="M422.85,351.8a1.12,1.12,0,0,0,.36-.05,1.3,1.3,0,0,0,.89-1.61l-6-21a1.3,1.3,0,1,0-2.5.72l6,21A1.29,1.29,0,0,0,422.85,351.8Z"></path></g><g style="opacity:0.4;isolation:isolate"><path d="M415.21,351.8a1.12,1.12,0,0,0,.36-.05,1.31,1.31,0,0,0,.9-1.61l-6-21a1.31,1.31,0,0,0-2.51.72l6,21A1.3,1.3,0,0,0,415.21,351.8Z"></path></g><g style="opacity:0.4;isolation:isolate"><path d="M407.58,351.8a1.12,1.12,0,0,0,.36-.05,1.3,1.3,0,0,0,.89-1.61l-6-21a1.3,1.3,0,1,0-2.5.72l6,21A1.31,1.31,0,0,0,407.58,351.8Z"></path></g><g style="opacity:0.4;isolation:isolate"><path d="M399.94,351.8a1.12,1.12,0,0,0,.36-.05,1.31,1.31,0,0,0,.9-1.61l-6-21a1.31,1.31,0,0,0-2.51.72l6,21A1.29,1.29,0,0,0,399.94,351.8Z"></path></g><g style="opacity:0.4;isolation:isolate"><path d="M392.31,351.8a1.16,1.16,0,0,0,.36-.05,1.3,1.3,0,0,0,.89-1.61l-6-21a1.31,1.31,0,0,0-2.51.72l6,21A1.31,1.31,0,0,0,392.31,351.8Z"></path></g><g style="opacity:0.4;isolation:isolate"><path d="M430.48,384.17a1.49,1.49,0,0,1,.36.05,1.3,1.3,0,0,1,.9,1.61l-6,21a1.31,1.31,0,1,1-2.51-.72l6-21A1.31,1.31,0,0,1,430.48,384.17Z"></path></g><g style="opacity:0.4;isolation:isolate"><path d="M422.85,384.17a1.49,1.49,0,0,1,.36.05,1.3,1.3,0,0,1,.89,1.61l-6,21a1.3,1.3,0,1,1-2.5-.72l6-21A1.29,1.29,0,0,1,422.85,384.17Z"></path></g><g style="opacity:0.4;isolation:isolate"><path d="M446.75,351.8a1.12,1.12,0,0,0,.36-.05,1.3,1.3,0,0,0,.89-1.61l-6-21a1.3,1.3,0,1,0-2.5.72l6,21A1.31,1.31,0,0,0,446.75,351.8Z"></path></g><g style="opacity:0.4;isolation:isolate"><path d="M439.11,351.8a1.12,1.12,0,0,0,.36-.05,1.31,1.31,0,0,0,.9-1.61l-6-21a1.31,1.31,0,0,0-2.51.72l6,21A1.3,1.3,0,0,0,439.11,351.8Z"></path></g><g style="opacity:0.4;isolation:isolate"><path d="M446.75,384.17a1.49,1.49,0,0,1,.36.05,1.3,1.3,0,0,1,.89,1.61l-6,21a1.3,1.3,0,1,1-2.5-.72l6-21A1.31,1.31,0,0,1,446.75,384.17Z"></path></g><g style="opacity:0.4;isolation:isolate"><path d="M439.11,384.17a1.49,1.49,0,0,1,.36.05,1.31,1.31,0,0,1,.9,1.61l-6,21a1.31,1.31,0,1,1-2.51-.72l6-21A1.3,1.3,0,0,1,439.11,384.17Z"></path></g><g style="opacity:0.4;isolation:isolate"><path d="M415.21,384.17a1.49,1.49,0,0,1,.36.05,1.31,1.31,0,0,1,.9,1.61l-6,21a1.31,1.31,0,1,1-2.51-.72l6-21A1.3,1.3,0,0,1,415.21,384.17Z"></path></g><g style="opacity:0.4;isolation:isolate"><path d="M407.58,384.17a1.49,1.49,0,0,1,.36.05,1.3,1.3,0,0,1,.89,1.61l-6,21a1.3,1.3,0,1,1-2.5-.72l6-21A1.31,1.31,0,0,1,407.58,384.17Z"></path></g><g style="opacity:0.4;isolation:isolate"><path d="M399.94,384.17a1.49,1.49,0,0,1,.36.05,1.31,1.31,0,0,1,.9,1.61l-6,21a1.31,1.31,0,1,1-2.51-.72l6-21A1.29,1.29,0,0,1,399.94,384.17Z"></path></g><g style="opacity:0.4;isolation:isolate"><path d="M392.31,384.17a1.56,1.56,0,0,1,.36.05,1.3,1.3,0,0,1,.89,1.61l-6,21a1.31,1.31,0,1,1-2.51-.72l6-21A1.31,1.31,0,0,1,392.31,384.17Z"></path></g><path d="M277.65,361.77h6.9l7.57-26.92a5.94,5.94,0,0,1,5.71-4.33h23.1a5.93,5.93,0,0,1,5.71,4.33l7.58,26.92H460.93a3.62,3.62,0,0,1,3.61,3.62v5.2a3.61,3.61,0,0,1-3.61,3.61H334.22l-7.58,26.93a5.93,5.93,0,0,1-5.71,4.32h-23.1a5.94,5.94,0,0,1-5.71-4.32l-7.59-26.93h-6.88a3.61,3.61,0,0,1-3.61-3.61v-5.2A3.61,3.61,0,0,1,277.65,361.77Z" style="fill:#1B93AA"></path><path d="M274,365.39v5.2a3.61,3.61,0,0,0,3.61,3.61h.57l10.58,35.57a9.26,9.26,0,0,0,8.88,6.62H321.1a9.24,9.24,0,0,0,8.86-6.62l10.58-35.57h.57a3.61,3.61,0,0,0,3.61-3.61v-5.2a3.61,3.61,0,0,0-3.61-3.62h-.57L330,326.2a9.25,9.25,0,0,0-8.86-6.62H297.68a9.27,9.27,0,0,0-8.88,6.62l-10.58,35.57h-.57A3.61,3.61,0,0,0,274,365.39Z" style="opacity:0.2;isolation:isolate"></path><path d="M277.65,361.77h6.9l7.57-26.92a5.94,5.94,0,0,1,5.71-4.33h23.1a5.93,5.93,0,0,1,5.71,4.33l7.58,26.92H460.93a3.62,3.62,0,0,1,3.61,3.62v5.2a3.61,3.61,0,0,1-3.61,3.61H334.22l-7.58,26.93a5.93,5.93,0,0,1-5.71,4.32h-23.1a5.94,5.94,0,0,1-5.71-4.32l-7.59-26.93h-6.88a3.61,3.61,0,0,1-3.61-3.61v-5.2A3.61,3.61,0,0,1,277.65,361.77Z" style="fill:#fff;opacity:0.4;isolation:isolate"></path><g style="opacity:0.4"><path d="M295.7,366.65c0,.72.26,1.3.57,1.3H322c.32,0,.58-.58.58-1.3s-.26-1.31-.58-1.31H296.27C296,365.34,295.7,365.93,295.7,366.65Z"></path></g><g style="opacity:0.4"><path d="M295.7,360.5c0,.72.26,1.3.57,1.3H322c.32,0,.58-.58.58-1.3s-.26-1.3-.58-1.3H296.27C296,359.2,295.7,359.78,295.7,360.5Z"></path></g><g style="opacity:0.4"><path d="M295.7,354.35c0,.72.26,1.31.57,1.31H322c.32,0,.58-.59.58-1.31s-.26-1.3-.58-1.3H296.27C296,353.05,295.7,353.63,295.7,354.35Z"></path></g><g style="opacity:0.4"><path d="M295.7,348.2c0,.72.26,1.31.57,1.31H322c.32,0,.58-.59.58-1.31s-.26-1.3-.58-1.3H296.27C296,346.9,295.7,347.48,295.7,348.2Z"></path></g><g style="opacity:0.4"><path d="M295.7,342.06c0,.72.26,1.3.57,1.3H322c.32,0,.58-.58.58-1.3s-.26-1.31-.58-1.31H296.27C296,340.75,295.7,341.34,295.7,342.06Z"></path></g><g style="opacity:0.4"><path d="M295.7,397.77c0,.72.26,1.31.57,1.31H322c.32,0,.58-.59.58-1.31s-.26-1.3-.58-1.3H296.27C296,396.47,295.7,397.05,295.7,397.77Z"></path></g><g style="opacity:0.4"><path d="M295.7,391.62c0,.72.26,1.31.57,1.31H322c.32,0,.58-.59.58-1.31s-.26-1.3-.58-1.3H296.27C296,390.32,295.7,390.9,295.7,391.62Z"></path></g><g style="opacity:0.4"><path d="M295.7,385.48c0,.72.26,1.3.57,1.3H322c.32,0,.58-.58.58-1.3s-.26-1.31-.58-1.31H296.27C296,384.17,295.7,384.76,295.7,385.48Z"></path></g><g style="opacity:0.4"><path d="M295.7,379.33c0,.72.26,1.3.57,1.3H322c.32,0,.58-.58.58-1.3S322.27,378,322,378H296.27C296,378,295.7,378.61,295.7,379.33Z"></path></g><g style="opacity:0.4"><path d="M295.7,373.18c0,.72.26,1.31.57,1.31H322c.32,0,.58-.59.58-1.31s-.26-1.3-.58-1.3H296.27C296,371.88,295.7,372.46,295.7,373.18Z"></path></g></g></svg>