<svg xmlns="http://www.w3.org/2000/svg" viewBox="0 0 500 500"><g id="freepik--background-simple--inject-2"><path d="M329.18,53.25S256.45,27.38,185.05,68.56,77.62,191.48,46.69,257,33.56,389,88.06,419.4s91.56-14.4,168-16.58,97,8.75,160.47-34.44,74.92-145.2,24.87-220.68S329.18,53.25,329.18,53.25Z" style="fill:#1B93AA"></path><path d="M329.18,53.25S256.45,27.38,185.05,68.56,77.62,191.48,46.69,257,33.56,389,88.06,419.4s91.56-14.4,168-16.58,97,8.75,160.47-34.44,74.92-145.2,24.87-220.68S329.18,53.25,329.18,53.25Z" style="fill:#fff;opacity:0.7000000000000001"></path></g><g id="freepik--Picture--inject-2"><rect x="284.67" y="60.33" width="162.1" height="145.98" style="fill:none;stroke:#263238;stroke-miterlimit:10"></rect><path d="M344.49,119.36A38.17,38.17,0,0,1,336,108c-3.36-7-8.28-10.35-14.22-8.79s-7,4.39-9.57,5.94a14.75,14.75,0,0,1-7.24,2.07c-1.81,0-2.33,1.3-1,4.14s2.07,2.33,4.14,2.33,6.21-.26,6,1-5.43,2.59-6.47,4.14,1.81,1.81,5.69,1.55,5.69-3.36,7.5-1,6.47,12.15,8.54,19.39,8,16.3,10.86,18.11c0,0,.51,24.31.51,26.89s.52,3.62-1,4.4-4.91,2.07-5.43,3.62l-.52,1.55h9.31a7.15,7.15,0,0,0,1.29-3.1v-2.07s2.59-3.36,2.59-5.43a62.84,62.84,0,0,1,1.55-10.35,57.86,57.86,0,0,0,2.07-8.53v-5.69s13.19-1.81,19.14-5.43,8.53-5.95,14-5.95,7.5,4.91,9.57,9,9.83,12.42,12.93,15.26,3.11,7.24,3.88,10.34a19.91,19.91,0,0,1,.52,6s-3.88.26-4.14,2.07a8.13,8.13,0,0,0,0,2.85H413a11.14,11.14,0,0,0,1.81-5.69c0-3.11,1.3-13.45,0-16.3s-7.49-7.75-7.75-12.93.26-17.32.26-17.32,5.17,7.5,12.67,6.2,7.5-4.13,8-9.05-.51-3.36-1-1.81.52,4.92-5.69,5.17-12.15-6.2-16-11.63-10.61-8.8-20.18-9.05-18.61,3.36-27.92,3.1S344.49,119.36,344.49,119.36Z" style="fill:#949494"></path><line x1="408.67" y1="96.33" x2="392.67" y2="96.33" style="fill:none;stroke:#263238;stroke-linecap:round;stroke-linejoin:round"></line><line x1="408.67" y1="99.67" x2="392.67" y2="99.67" style="fill:none;stroke:#263238;stroke-linecap:round;stroke-linejoin:round"></line><line x1="408.67" y1="103" x2="392.67" y2="103" style="fill:none;stroke:#263238;stroke-linecap:round;stroke-linejoin:round"></line><line x1="439.82" y1="157.96" x2="423.82" y2="157.96" style="fill:none;stroke:#263238;stroke-linecap:round;stroke-linejoin:round"></line><line x1="439.82" y1="161.3" x2="423.82" y2="161.3" style="fill:none;stroke:#263238;stroke-linecap:round;stroke-linejoin:round"></line><line x1="439.82" y1="164.63" x2="423.82" y2="164.63" style="fill:none;stroke:#263238;stroke-linecap:round;stroke-linejoin:round"></line><line x1="347.04" y1="83.94" x2="331.04" y2="83.94" style="fill:none;stroke:#263238;stroke-linecap:round;stroke-linejoin:round"></line><line x1="347.04" y1="87.27" x2="331.04" y2="87.27" style="fill:none;stroke:#263238;stroke-linecap:round;stroke-linejoin:round"></line><line x1="347.04" y1="90.61" x2="331.04" y2="90.61" style="fill:none;stroke:#263238;stroke-linecap:round;stroke-linejoin:round"></line><line x1="311.53" y1="153.28" x2="295.53" y2="153.28" style="fill:none;stroke:#263238;stroke-linecap:round;stroke-linejoin:round"></line><line x1="311.53" y1="156.61" x2="295.53" y2="156.61" style="fill:none;stroke:#263238;stroke-linecap:round;stroke-linejoin:round"></line><line x1="311.53" y1="159.94" x2="295.53" y2="159.94" style="fill:none;stroke:#263238;stroke-linecap:round;stroke-linejoin:round"></line><line x1="380.87" y1="183.09" x2="364.87" y2="183.09" style="fill:none;stroke:#263238;stroke-linecap:round;stroke-linejoin:round"></line><line x1="380.87" y1="186.42" x2="364.87" y2="186.42" style="fill:none;stroke:#263238;stroke-linecap:round;stroke-linejoin:round"></line><line x1="380.87" y1="189.75" x2="364.87" y2="189.75" style="fill:none;stroke:#263238;stroke-linecap:round;stroke-linejoin:round"></line><polyline points="388.97 96.44 381.6 96.44 362.51 121.56" style="fill:none;stroke:#263238;stroke-linecap:round;stroke-linejoin:round"></polyline><polyline points="328.35 87.39 322.32 87.39 322.32 97.11" style="fill:none;stroke:#263238;stroke-linecap:round;stroke-linejoin:round"></polyline><polyline points="312.94 157.06 318.3 157.06 326.34 143" style="fill:none;stroke:#263238;stroke-linecap:round;stroke-linejoin:round"></polyline><polyline points="422.47 161.42 417.11 161.42 417.11 149.69" style="fill:none;stroke:#263238;stroke-linecap:round;stroke-linejoin:round"></polyline><line x1="382.61" y1="185.53" x2="406.05" y2="185.53" style="fill:none;stroke:#263238;stroke-linecap:round;stroke-linejoin:round"></line><rect x="318" y="73" width="98.67" height="5.33" style="fill:#949494"></rect><rect x="339.18" y="65.02" width="56.32" height="4.57" style="fill:#949494"></rect></g><g id="freepik--Plants--inject-2"><path d="M457.35,245.4s0-5.59-7.82-13.41-12.85-12.29-12.85-12.29-3.91,12.85,3.35,20.67a137.61,137.61,0,0,0,17.32,15.09Z" style="fill:#1B93AA"></path><path d="M446,280.29s0-5.59-7.82-13.41-12.85-12.29-12.85-12.29-3.91,12.85,3.35,20.67A137.61,137.61,0,0,0,446,290.35Z" style="fill:#1B93AA"></path><path d="M456.86,254.92s.59-5.56,9.19-12.51,14.08-10.87,14.08-10.87,2.53,13.19-5.52,20.21a137.68,137.68,0,0,1-18.81,13.17Z" style="fill:#1B93AA"></path><path d="M443.15,296.12s1.17-5.46,10.45-11.47,15.14-9.33,15.14-9.33,1.13,13.39-7.61,19.51A137.58,137.58,0,0,1,441,306Z" style="fill:#1B93AA"></path><path d="M445.72,341.05s0-5.59,7.82-13.41,12.85-12.29,12.85-12.29S470.31,328.2,463,336a137.61,137.61,0,0,1-17.32,15.09Z" style="fill:#1B93AA"></path><path d="M445.59,352s.8-5.53-5.83-14.39-11-14-11-14-5.69,12.16.38,20.94a137.86,137.86,0,0,0,15,17.39Z" style="fill:#1B93AA"></path><path d="M437.88,384.51s0-5.58,7.82-13.4,12.85-12.29,12.85-12.29,3.91,12.85-3.35,20.67a137.1,137.1,0,0,1-17.32,15.08Z" style="fill:#1B93AA"></path><path d="M443.1,414s-1.41-5.4,4.17-15,9.32-15.15,9.32-15.15,7,11.44,2,20.85a136.84,136.84,0,0,1-12.93,19Z" style="fill:#1B93AA"></path><path d="M458.06,244a161.62,161.62,0,0,1-2.14,17.35c-3.1,16-10.83,26.28-13.92,40.71s5.79,33,3.41,51.55-9.59,28.83-7.53,41.2,13.52,47.31,13.52,47.31" style="fill:none;stroke:#263238;stroke-linecap:round;stroke-linejoin:round"></path><line x1="456.78" y1="258.63" x2="465.21" y2="252.16" style="fill:none;stroke:#263238;stroke-linecap:round;stroke-linejoin:round"></line><line x1="457.17" y1="251.18" x2="453.65" y2="244.91" style="fill:none;stroke:#263238;stroke-linecap:round;stroke-linejoin:round"></line><path d="M442.47,301.36s7.06-5.29,14.31-10.58" style="fill:none;stroke:#263238;stroke-linecap:round;stroke-linejoin:round"></path><path d="M446,290.35s-5.88-11.53-12.55-19.18" style="fill:none;stroke:#263238;stroke-linecap:round;stroke-linejoin:round"></path><path d="M446,349a87.43,87.43,0,0,1,15.09-20.19" style="fill:none;stroke:#263238;stroke-linecap:round;stroke-linejoin:round"></path><path d="M444.63,356.84A98.71,98.71,0,0,0,437,342.33c-4.11-6.07-4.7-6.86-4.7-6.86" style="fill:none;stroke:#263238;stroke-linecap:round;stroke-linejoin:round"></path><path d="M437.88,394.78a93.64,93.64,0,0,1,6.36-12.85,81.87,81.87,0,0,1,8.23-10.78" style="fill:none;stroke:#263238;stroke-linecap:round;stroke-linejoin:round"></path><path d="M445.65,423.71s-.83-6.69,2.11-12.38,6.28-13.13,7.65-16.07" style="fill:none;stroke:#263238;stroke-linecap:round;stroke-linejoin:round"></path><path d="M406.13,320s-.61-3.51,3.45-9.26,6.72-9.1,6.72-9.1,3.85,7.63.15,13.32a87.14,87.14,0,0,1-9.23,11.34Z" style="fill:#1B93AA"></path><path d="M417,340.69s-.61-3.51,3.45-9.26,6.72-9.1,6.72-9.1,3.85,7.63.14,13.32A86.57,86.57,0,0,1,418.13,347Z" style="fill:#1B93AA"></path><path d="M407.47,326s-1-3.42-7.12-6.84-10-5.29-10-5.29-.15,8.55,5.66,12.07a87.65,87.65,0,0,0,13.22,6.22Z" style="fill:#1B93AA"></path><path d="M420.54,350.3s-1.32-3.3-7.8-6.06-10.5-4.2-10.5-4.2.74,8.52,6.88,11.41a87.79,87.79,0,0,0,13.81,4.79Z" style="fill:#1B93AA"></path><path d="M423.81,378.76s-.61-3.51-6.36-7.56-9.4-6.32-9.4-6.32-1.05,8.49,4.35,12.6a86.88,86.88,0,0,0,12.5,7.58Z" style="fill:#1B93AA"></path><path d="M425.08,385.62s-1.1-3.38,2.1-9.66,5.36-10,5.36-10,4.89,7,2,13.17a87.44,87.44,0,0,1-7.52,12.53Z" style="fill:#1B93AA"></path><path d="M434.9,413.88s.4-3.53,5.91-7.91,9-6.84,9-6.84,1.54,8.41-3.62,12.83a88.41,88.41,0,0,1-12,8.28Z" style="fill:#1B93AA"></path><path d="M433.44,405.16s-.6-3.5-6.36-7.56-9.39-6.31-9.39-6.31-1.06,8.48,4.35,12.6a88.11,88.11,0,0,0,12.49,7.58Z" style="fill:#1B93AA"></path><path d="M433.37,424.2s.3-3.54-4.24-8.92-7.49-8.48-7.49-8.48-3.17,7.93,1,13.28a87.25,87.25,0,0,0,10.17,10.5Z" style="fill:#1B93AA"></path><path d="M405.53,319.22a101.59,101.59,0,0,0,3.23,10.64c3.67,9.68,9.64,15.31,13.14,24s0,21.33,3.46,32.7,9.15,17,9.2,25-3.1,30.16-3.1,30.16" style="fill:none;stroke:#263238;stroke-linecap:round;stroke-linejoin:round"></path><line x1="407.92" y1="328.27" x2="401.94" y2="325.13" style="fill:none;stroke:#263238;stroke-linecap:round;stroke-linejoin:round"></line><line x1="406.87" y1="323.64" x2="408.4" y2="319.33" style="fill:none;stroke:#263238;stroke-linecap:round;stroke-linejoin:round"></line><path d="M421.54,353.52s-5-2.56-10.13-5.09" style="fill:none;stroke:#263238;stroke-linecap:round;stroke-linejoin:round"></path><path d="M418.13,347a71.16,71.16,0,0,1,5.78-13.38" style="fill:none;stroke:#263238;stroke-linecap:round;stroke-linejoin:round"></path><path d="M424.5,383.77a55.58,55.58,0,0,0-11.66-11" style="fill:none;stroke:#263238;stroke-linecap:round;stroke-linejoin:round"></path><path d="M426.21,388.54a62,62,0,0,1,3.22-9.93c1.92-4.26,2.2-4.81,2.2-4.81" style="fill:none;stroke:#263238;stroke-linecap:round;stroke-linejoin:round"></path><path d="M434.29,417.65s4-4.86,6.43-6.68a34.69,34.69,0,0,0,4.19-3.64" style="fill:none;stroke:#263238;stroke-linecap:round;stroke-linejoin:round"></path><path d="M434.56,411.6a59.46,59.46,0,0,0-5.38-7.37,52.49,52.49,0,0,0-6.34-5.87" style="fill:none;stroke:#263238;stroke-linecap:round;stroke-linejoin:round"></path><path d="M432.82,430.58a15.2,15.2,0,0,0-2.66-7.53c-2.47-3.24-5.36-7.55-6.54-9.25" style="fill:none;stroke:#263238;stroke-linecap:round;stroke-linejoin:round"></path></g><g id="freepik--Device--inject-2"><rect x="292.24" y="269.46" width="98.03" height="85.09" style="fill:none;stroke:#263238;stroke-linecap:round;stroke-linejoin:round"></rect><rect x="300.87" y="276.94" width="80.77" height="70.12" rx="3.17" style="fill:none;stroke:#263238;stroke-linecap:round;stroke-linejoin:round"></rect><path d="M325.6,357.27h32a6.81,6.81,0,0,1,6.81,6.81v4.08a0,0,0,0,1,0,0H318.79a0,0,0,0,1,0,0v-4.08A6.81,6.81,0,0,1,325.6,357.27Z" style="fill:none;stroke:#263238;stroke-linecap:round;stroke-linejoin:round"></path><polygon points="409.33 409.04 273.6 409.04 288.16 368.16 394.77 368.16 409.33 409.04" style="fill:none;stroke:#263238;stroke-linecap:round;stroke-linejoin:round"></polygon><polygon points="297.61 377.24 291.11 377.24 292.77 372 299.05 372 297.61 377.24" style="fill:none;stroke:#263238;stroke-linecap:round;stroke-linejoin:round"></polygon><polygon points="308.07 377.24 301.58 377.24 302.89 372 309.18 372 308.07 377.24" style="fill:none;stroke:#263238;stroke-linecap:round;stroke-linejoin:round"></polygon><polygon points="318.54 377.24 312.05 377.24 313.01 372 319.3 372 318.54 377.24" style="fill:none;stroke:#263238;stroke-linecap:round;stroke-linejoin:round"></polygon><polygon points="329.01 377.24 322.51 377.24 323.14 372 329.42 372 329.01 377.24" style="fill:none;stroke:#263238;stroke-linecap:round;stroke-linejoin:round"></polygon><polygon points="339.48 377.24 332.98 377.24 333.26 372 339.55 372 339.48 377.24" style="fill:none;stroke:#263238;stroke-linecap:round;stroke-linejoin:round"></polygon><polygon points="349.95 377.24 343.45 377.24 343.39 372 349.67 372 349.95 377.24" style="fill:none;stroke:#263238;stroke-linecap:round;stroke-linejoin:round"></polygon><polygon points="360.42 377.24 353.92 377.24 353.51 372 359.79 372 360.42 377.24" style="fill:none;stroke:#263238;stroke-linecap:round;stroke-linejoin:round"></polygon><polygon points="370.89 377.24 364.39 377.24 363.63 372 369.92 372 370.89 377.24" style="fill:none;stroke:#263238;stroke-linecap:round;stroke-linejoin:round"></polygon><polygon points="381.36 377.24 374.86 377.24 373.76 372 380.04 372 381.36 377.24" style="fill:none;stroke:#263238;stroke-linecap:round;stroke-linejoin:round"></polygon><polygon points="391.82 377.24 385.33 377.24 383.88 372 390.17 372 391.82 377.24" style="fill:none;stroke:#263238;stroke-linecap:round;stroke-linejoin:round"></polygon><polygon points="295.52 384.8 288.71 384.8 290.53 379.06 297.1 379.06 295.52 384.8" style="fill:none;stroke:#263238;stroke-linecap:round;stroke-linejoin:round"></polygon><polygon points="306.48 384.8 299.68 384.8 301.12 379.06 307.69 379.06 306.48 384.8" style="fill:none;stroke:#263238;stroke-linecap:round;stroke-linejoin:round"></polygon><polygon points="317.45 384.8 310.64 384.8 311.71 379.06 318.28 379.06 317.45 384.8" style="fill:none;stroke:#263238;stroke-linecap:round;stroke-linejoin:round"></polygon><polygon points="328.42 384.8 321.61 384.8 322.3 379.06 328.87 379.06 328.42 384.8" style="fill:none;stroke:#263238;stroke-linecap:round;stroke-linejoin:round"></polygon><polygon points="339.39 384.8 332.58 384.8 332.88 379.06 339.46 379.06 339.39 384.8" style="fill:none;stroke:#263238;stroke-linecap:round;stroke-linejoin:round"></polygon><polygon points="350.35 384.8 343.55 384.8 343.47 379.06 350.05 379.06 350.35 384.8" style="fill:none;stroke:#263238;stroke-linecap:round;stroke-linejoin:round"></polygon><polygon points="361.32 384.8 354.51 384.8 354.06 379.06 360.64 379.06 361.32 384.8" style="fill:none;stroke:#263238;stroke-linecap:round;stroke-linejoin:round"></polygon><polygon points="372.29 384.8 365.48 384.8 364.65 379.06 371.23 379.06 372.29 384.8" style="fill:none;stroke:#263238;stroke-linecap:round;stroke-linejoin:round"></polygon><polygon points="383.25 384.8 376.45 384.8 375.24 379.06 381.81 379.06 383.25 384.8" style="fill:none;stroke:#263238;stroke-linecap:round;stroke-linejoin:round"></polygon><polygon points="394.22 384.8 387.42 384.8 385.83 379.06 392.4 379.06 394.22 384.8" style="fill:none;stroke:#263238;stroke-linecap:round;stroke-linejoin:round"></polygon><polygon points="293.22 393.12 286.07 393.12 288.07 386.8 294.96 386.8 293.22 393.12" style="fill:none;stroke:#263238;stroke-linecap:round;stroke-linejoin:round"></polygon><polygon points="304.73 393.12 297.59 393.12 299.17 386.8 306.06 386.8 304.73 393.12" style="fill:none;stroke:#263238;stroke-linecap:round;stroke-linejoin:round"></polygon><polygon points="316.25 393.12 309.1 393.12 310.27 386.8 317.16 386.8 316.25 393.12" style="fill:none;stroke:#263238;stroke-linecap:round;stroke-linejoin:round"></polygon><polygon points="327.77 393.12 320.62 393.12 321.37 386.8 328.26 386.8 327.77 393.12" style="fill:none;stroke:#263238;stroke-linecap:round;stroke-linejoin:round"></polygon><polygon points="339.28 393.12 332.13 393.12 332.47 386.8 339.36 386.8 339.28 393.12" style="fill:none;stroke:#263238;stroke-linecap:round;stroke-linejoin:round"></polygon><polygon points="350.8 393.12 343.65 393.12 343.57 386.8 350.46 386.8 350.8 393.12" style="fill:none;stroke:#263238;stroke-linecap:round;stroke-linejoin:round"></polygon><polygon points="362.31 393.12 355.17 393.12 354.67 386.8 361.56 386.8 362.31 393.12" style="fill:none;stroke:#263238;stroke-linecap:round;stroke-linejoin:round"></polygon><polygon points="373.83 393.12 366.68 393.12 365.77 386.8 372.66 386.8 373.83 393.12" style="fill:none;stroke:#263238;stroke-linecap:round;stroke-linejoin:round"></polygon><polygon points="385.35 393.12 378.2 393.12 376.87 386.8 383.76 386.8 385.35 393.12" style="fill:none;stroke:#263238;stroke-linecap:round;stroke-linejoin:round"></polygon><polygon points="396.86 393.12 389.71 393.12 387.97 386.8 394.86 386.8 396.86 393.12" style="fill:none;stroke:#263238;stroke-linecap:round;stroke-linejoin:round"></polygon><polygon points="290.68 402.31 283.15 402.31 285.37 395.33 292.61 395.33 290.68 402.31" style="fill:none;stroke:#263238;stroke-linecap:round;stroke-linejoin:round"></polygon><polygon points="302.8 402.31 295.28 402.31 297.03 395.33 304.27 395.33 302.8 402.31" style="fill:none;stroke:#263238;stroke-linecap:round;stroke-linejoin:round"></polygon><polygon points="314.92 402.31 307.4 402.31 308.69 395.33 315.93 395.33 314.92 402.31" style="fill:none;stroke:#263238;stroke-linecap:round;stroke-linejoin:round"></polygon><polygon points="327.05 402.31 319.52 402.31 320.35 395.33 327.59 395.33 327.05 402.31" style="fill:none;stroke:#263238;stroke-linecap:round;stroke-linejoin:round"></polygon><polygon points="339.17 402.31 331.64 402.31 332.02 395.33 339.25 395.33 339.17 402.31" style="fill:none;stroke:#263238;stroke-linecap:round;stroke-linejoin:round"></polygon><polygon points="351.29 402.31 343.76 402.31 343.68 395.33 350.92 395.33 351.29 402.31" style="fill:none;stroke:#263238;stroke-linecap:round;stroke-linejoin:round"></polygon><polygon points="363.41 402.31 355.89 402.31 355.34 395.33 362.58 395.33 363.41 402.31" style="fill:none;stroke:#263238;stroke-linecap:round;stroke-linejoin:round"></polygon><polygon points="375.53 402.31 368.01 402.31 367 395.33 374.24 395.33 375.53 402.31" style="fill:none;stroke:#263238;stroke-linecap:round;stroke-linejoin:round"></polygon><polygon points="387.65 402.31 380.13 402.31 378.66 395.33 385.9 395.33 387.65 402.31" style="fill:none;stroke:#263238;stroke-linecap:round;stroke-linejoin:round"></polygon><polygon points="399.78 402.31 392.25 402.31 390.32 395.33 397.56 395.33 399.78 402.31" style="fill:none;stroke:#263238;stroke-linecap:round;stroke-linejoin:round"></polygon><rect x="273.02" y="409.04" width="136.31" height="32.45" style="fill:none;stroke:#263238;stroke-linecap:round;stroke-linejoin:round"></rect></g><g id="freepik--Shelf--inject-2"><rect x="214.96" y="190.46" width="23.94" height="40.11" style="fill:#fff;stroke:#263238;stroke-linecap:round;stroke-linejoin:round"></rect><rect x="214.96" y="190.46" width="15.53" height="40.11" style="fill:#fff;stroke:#263238;stroke-linecap:round;stroke-linejoin:round"></rect><rect x="216.7" y="207.5" width="11.86" height="18.83" style="fill:#1B93AA;stroke:#263238;stroke-linecap:round;stroke-linejoin:round"></rect><rect x="196.4" y="190.46" width="23.94" height="40.11" style="fill:#fff;stroke:#263238;stroke-linecap:round;stroke-linejoin:round"></rect><rect x="196.4" y="190.46" width="15.53" height="40.11" style="fill:#fff;stroke:#263238;stroke-linecap:round;stroke-linejoin:round"></rect><rect x="198.14" y="207.5" width="11.85" height="18.83" style="fill:#1B93AA;stroke:#263238;stroke-linecap:round;stroke-linejoin:round"></rect><rect x="177.85" y="190.46" width="23.94" height="40.11" style="fill:#fff;stroke:#263238;stroke-linecap:round;stroke-linejoin:round"></rect><rect x="177.85" y="190.46" width="15.53" height="40.11" style="fill:#fff;stroke:#263238;stroke-linecap:round;stroke-linejoin:round"></rect><rect x="179.59" y="207.5" width="11.86" height="18.83" style="fill:#1B93AA;stroke:#263238;stroke-linecap:round;stroke-linejoin:round"></rect><rect x="102.26" y="392.49" width="23.94" height="40.11" style="fill:#fff;stroke:#263238;stroke-linecap:round;stroke-linejoin:round"></rect><rect x="102.26" y="392.49" width="15.53" height="40.11" style="fill:#fff;stroke:#263238;stroke-linecap:round;stroke-linejoin:round"></rect><rect x="104" y="409.53" width="11.86" height="18.83" style="fill:#1B93AA;stroke:#263238;stroke-linecap:round;stroke-linejoin:round"></rect><rect x="69.96" y="392.49" width="23.94" height="40.11" style="fill:#fff;stroke:#263238;stroke-linecap:round;stroke-linejoin:round"></rect><rect x="69.96" y="392.49" width="15.53" height="40.11" style="fill:#fff;stroke:#263238;stroke-linecap:round;stroke-linejoin:round"></rect><rect x="71.7" y="409.53" width="11.86" height="18.83" style="fill:#1B93AA;stroke:#263238;stroke-linecap:round;stroke-linejoin:round"></rect><rect x="212.21" y="392.49" width="23.94" height="40.11" style="fill:#fff;stroke:#263238;stroke-linecap:round;stroke-linejoin:round"></rect><rect x="212.21" y="392.49" width="15.53" height="40.11" style="fill:#fff;stroke:#263238;stroke-linecap:round;stroke-linejoin:round"></rect><rect x="213.95" y="409.53" width="11.86" height="18.83" style="fill:#1B93AA;stroke:#263238;stroke-linecap:round;stroke-linejoin:round"></rect><rect x="179.91" y="392.49" width="23.94" height="40.11" style="fill:#fff;stroke:#263238;stroke-linecap:round;stroke-linejoin:round"></rect><rect x="179.91" y="392.49" width="15.53" height="40.11" style="fill:#fff;stroke:#263238;stroke-linecap:round;stroke-linejoin:round"></rect><rect x="181.65" y="409.53" width="11.86" height="18.83" style="fill:#1B93AA;stroke:#263238;stroke-linecap:round;stroke-linejoin:round"></rect><rect x="159.98" y="392.49" width="23.94" height="40.11" style="fill:#fff;stroke:#263238;stroke-linecap:round;stroke-linejoin:round"></rect><rect x="159.98" y="392.49" width="15.53" height="40.11" style="fill:#fff;stroke:#263238;stroke-linecap:round;stroke-linejoin:round"></rect><rect x="161.72" y="409.53" width="11.85" height="18.83" style="fill:#1B93AA;stroke:#263238;stroke-linecap:round;stroke-linejoin:round"></rect><rect x="201.21" y="307.14" width="37.68" height="10.02" style="fill:#1B93AA;stroke:#263238;stroke-linecap:round;stroke-linejoin:round"></rect><rect x="201.21" y="307.14" width="21.71" height="10.02" style="fill:#1B93AA;stroke:#263238;stroke-linecap:round;stroke-linejoin:round"></rect><rect x="180.6" y="307.14" width="37.68" height="10.02" style="fill:#1B93AA;stroke:#263238;stroke-linecap:round;stroke-linejoin:round"></rect><rect x="180.6" y="307.14" width="21.71" height="10.02" style="fill:#1B93AA;stroke:#263238;stroke-linecap:round;stroke-linejoin:round"></rect><rect x="102.26" y="202.68" width="23.94" height="27.88" style="fill:#fff;stroke:#263238;stroke-linecap:round;stroke-linejoin:round"></rect><rect x="102.26" y="202.68" width="15.53" height="27.88" style="fill:#fff;stroke:#263238;stroke-linecap:round;stroke-linejoin:round"></rect><rect x="104" y="217.31" width="11.86" height="9.01" style="fill:#1B93AA;stroke:#263238;stroke-linecap:round;stroke-linejoin:round"></rect><path d="M58.5,184.54H69.28A5.42,5.42,0,0,1,74.7,190v40.61a0,0,0,0,1,0,0H53.08a0,0,0,0,1,0,0V190A5.42,5.42,0,0,1,58.5,184.54Z" style="fill:#1B93AA;stroke:#263238;stroke-linecap:round;stroke-linejoin:round"></path><rect x="59.88" y="176.17" width="8.89" height="8.37" style="fill:#263238;stroke:#263238;stroke-linecap:round;stroke-linejoin:round"></rect><rect x="54.82" y="193.61" width="13.95" height="29.99" style="fill:#fff;stroke:#263238;stroke-linecap:round;stroke-linejoin:round"></rect><path d="M58.5,78.9H78.64a5.42,5.42,0,0,1,5.42,5.42v60.55a0,0,0,0,1,0,0h-31a0,0,0,0,1,0,0V84.32A5.42,5.42,0,0,1,58.5,78.9Z" style="fill:#1B93AA;stroke:#263238;stroke-linecap:round;stroke-linejoin:round"></path><rect x="62.82" y="66.9" width="12.74" height="11.99" style="fill:#263238;stroke:#263238;stroke-linecap:round;stroke-linejoin:round"></rect><rect x="55.58" y="91.89" width="19.99" height="42.98" style="fill:#fff;stroke:#263238;stroke-linecap:round;stroke-linejoin:round"></rect><path d="M98.5,78.9h20.15a5.42,5.42,0,0,1,5.42,5.42v60.55a0,0,0,0,1,0,0h-31a0,0,0,0,1,0,0V84.32A5.42,5.42,0,0,1,98.5,78.9Z" style="fill:#1B93AA;stroke:#263238;stroke-linecap:round;stroke-linejoin:round"></path><rect x="102.82" y="66.9" width="12.74" height="11.99" style="fill:#263238;stroke:#263238;stroke-linecap:round;stroke-linejoin:round"></rect><rect x="95.58" y="91.89" width="19.99" height="42.98" style="fill:#fff;stroke:#263238;stroke-linecap:round;stroke-linejoin:round"></rect><path d="M58.5,271.13H69.28a5.42,5.42,0,0,1,5.42,5.42v40.61a0,0,0,0,1,0,0H53.08a0,0,0,0,1,0,0V276.55A5.42,5.42,0,0,1,58.5,271.13Z" style="fill:#1B93AA;stroke:#263238;stroke-linecap:round;stroke-linejoin:round"></path><rect x="59.88" y="262.76" width="8.89" height="8.37" style="fill:#263238;stroke:#263238;stroke-linecap:round;stroke-linejoin:round"></rect><rect x="54.82" y="280.19" width="13.95" height="29.99" style="fill:#fff;stroke:#263238;stroke-linecap:round;stroke-linejoin:round"></rect><path d="M158.83,271.13h10.78a5.42,5.42,0,0,1,5.42,5.42v40.61a0,0,0,0,1,0,0H153.41a0,0,0,0,1,0,0V276.55A5.42,5.42,0,0,1,158.83,271.13Z" style="fill:#1B93AA;stroke:#263238;stroke-linecap:round;stroke-linejoin:round"></path><rect x="160.21" y="262.76" width="8.89" height="8.37" style="fill:#263238;stroke:#263238;stroke-linecap:round;stroke-linejoin:round"></rect><rect x="155.15" y="280.19" width="13.95" height="29.99" style="fill:#fff;stroke:#263238;stroke-linecap:round;stroke-linejoin:round"></rect><path d="M85.3,271.13H96.08a5.42,5.42,0,0,1,5.42,5.42v40.61a0,0,0,0,1,0,0H79.88a0,0,0,0,1,0,0V276.55A5.42,5.42,0,0,1,85.3,271.13Z" style="fill:#1B93AA;stroke:#263238;stroke-linecap:round;stroke-linejoin:round"></path><rect x="86.68" y="262.76" width="8.89" height="8.37" style="fill:#263238;stroke:#263238;stroke-linecap:round;stroke-linejoin:round"></rect><rect x="81.62" y="280.19" width="13.95" height="29.99" style="fill:#fff;stroke:#263238;stroke-linecap:round;stroke-linejoin:round"></rect><path d="M84,200.58H94.73a5.42,5.42,0,0,1,5.42,5.42v24.57a0,0,0,0,1,0,0H78.53a0,0,0,0,1,0,0V206A5.42,5.42,0,0,1,84,200.58Z" style="fill:#1B93AA;stroke:#263238;stroke-linecap:round;stroke-linejoin:round"></path><rect x="85.33" y="192.21" width="8.89" height="8.37" style="fill:#263238;stroke:#263238;stroke-linecap:round;stroke-linejoin:round"></rect><rect x="80.27" y="209.65" width="13.95" height="13.95" style="fill:#fff;stroke:#263238;stroke-linecap:round;stroke-linejoin:round"></rect><rect x="35.65" y="144.7" width="219.52" height="297.3" style="fill:none;stroke:#263238;stroke-linecap:round;stroke-linejoin:round"></rect><rect x="41.92" y="153.21" width="206.97" height="280.29" style="fill:none;stroke:#263238;stroke-linecap:round;stroke-linejoin:round"></rect><rect x="142.36" y="153.21" width="6.1" height="280.29" style="fill:none;stroke:#263238;stroke-linecap:round;stroke-linejoin:round"></rect><line x1="181.82" y1="180.21" x2="178.35" y2="183.07" style="fill:none;stroke:#263238;stroke-linecap:round;stroke-linejoin:round"></line><line x1="214.62" y1="153.16" x2="186.5" y2="176.35" style="fill:none;stroke:#263238;stroke-linecap:round;stroke-linejoin:round"></line><line x1="223.78" y1="153.16" x2="205.54" y2="168.2" style="fill:none;stroke:#263238;stroke-linecap:round;stroke-linejoin:round"></line><line x1="94.52" y1="180.21" x2="91.05" y2="183.07" style="fill:none;stroke:#263238;stroke-linecap:round;stroke-linejoin:round"></line><line x1="127.33" y1="153.16" x2="99.2" y2="176.35" style="fill:none;stroke:#263238;stroke-linecap:round;stroke-linejoin:round"></line><line x1="136.48" y1="153.16" x2="118.24" y2="168.2" style="fill:none;stroke:#263238;stroke-linecap:round;stroke-linejoin:round"></line><line x1="181.82" y1="265.55" x2="178.35" y2="268.4" style="fill:none;stroke:#263238;stroke-linecap:round;stroke-linejoin:round"></line><line x1="214.62" y1="238.49" x2="186.5" y2="261.68" style="fill:none;stroke:#263238;stroke-linecap:round;stroke-linejoin:round"></line><line x1="223.78" y1="238.49" x2="205.54" y2="253.53" style="fill:none;stroke:#263238;stroke-linecap:round;stroke-linejoin:round"></line><line x1="94.52" y1="265.55" x2="91.05" y2="268.4" style="fill:none;stroke:#263238;stroke-linecap:round;stroke-linejoin:round"></line><line x1="127.33" y1="238.49" x2="99.2" y2="261.68" style="fill:none;stroke:#263238;stroke-linecap:round;stroke-linejoin:round"></line><line x1="136.48" y1="238.49" x2="118.24" y2="253.53" style="fill:none;stroke:#263238;stroke-linecap:round;stroke-linejoin:round"></line><line x1="181.82" y1="350.88" x2="178.35" y2="353.74" style="fill:none;stroke:#263238;stroke-linecap:round;stroke-linejoin:round"></line><line x1="214.62" y1="323.83" x2="186.5" y2="347.02" style="fill:none;stroke:#263238;stroke-linecap:round;stroke-linejoin:round"></line><line x1="223.78" y1="323.83" x2="205.54" y2="338.87" style="fill:none;stroke:#263238;stroke-linecap:round;stroke-linejoin:round"></line><line x1="63.13" y1="379.22" x2="59.66" y2="382.08" style="fill:none;stroke:#263238;stroke-linecap:round;stroke-linejoin:round"></line><line x1="95.94" y1="352.17" x2="67.81" y2="375.36" style="fill:none;stroke:#263238;stroke-linecap:round;stroke-linejoin:round"></line><line x1="105.09" y1="352.17" x2="86.85" y2="367.2" style="fill:none;stroke:#263238;stroke-linecap:round;stroke-linejoin:round"></line><line x1="249.48" y1="231.55" x2="149.15" y2="231.55" style="fill:none;stroke:#263238;stroke-linecap:round;stroke-linejoin:round"></line><line x1="142.28" y1="231.55" x2="41.95" y2="231.55" style="fill:none;stroke:#263238;stroke-linecap:round;stroke-linejoin:round"></line><line x1="249.48" y1="318.13" x2="149.15" y2="318.13" style="fill:none;stroke:#263238;stroke-linecap:round;stroke-linejoin:round"></line><line x1="142.28" y1="318.13" x2="41.95" y2="318.13" style="fill:none;stroke:#263238;stroke-linecap:round;stroke-linejoin:round"></line></g><g id="freepik--Character--inject-2"><line x1="22.12" y1="441.98" x2="472" y2="441.98" style="fill:none;stroke:#263238;stroke-linecap:round;stroke-linejoin:round"></line><path d="M173.21,187.21s-27.76,17.26-39.39,22.89-26.64,20.26-27,24.77S123.31,442,123.31,442H288l-8.26-192.86,10.88-3.75S267,207.85,259.89,205.22s-37.9-17.63-47.28-19.13S173.21,187.21,173.21,187.21Z" style="fill:#1B93AA;stroke:#263238;stroke-linecap:round;stroke-linejoin:round"></path><path d="M324.17,301.08s6.39-.77,5.11,5.87-2,11.74-6.38,12.77-6.13-1.28-4.86-6.64S320.85,300.82,324.17,301.08Z" style="fill:#1B93AA;stroke:#263238;stroke-linecap:round;stroke-linejoin:round"></path><path d="M320.2,295.88s6.38-.77,5.1,5.87-2,11.75-6.38,12.77-6.13-1.28-4.85-6.64S316.88,295.62,320.2,295.88Z" style="fill:#1B93AA;stroke:#263238;stroke-linecap:round;stroke-linejoin:round"></path><path d="M314.51,290s7.65-.92,6.12,7-2.45,14.07-7.65,15.29-7.34-1.53-5.81-7.95S310.54,289.74,314.51,290Z" style="fill:#1B93AA;stroke:#263238;stroke-linecap:round;stroke-linejoin:round"></path><path d="M308.4,287s7.64-.91,6.11,7-2.44,14.06-7.64,15.29-7.34-1.53-5.81-8S304.42,286.68,308.4,287Z" style="fill:#1B93AA;stroke:#263238;stroke-linecap:round;stroke-linejoin:round"></path><line x1="157.08" y1="386.49" x2="160.09" y2="382.08" style="fill:none;stroke:#263238;stroke-linecap:round;stroke-linejoin:round"></line><line x1="126.61" y1="431.16" x2="153.57" y2="391.64" style="fill:none;stroke:#263238;stroke-linecap:round;stroke-linejoin:round"></line><line x1="127.53" y1="411.44" x2="140.37" y2="394.47" style="fill:none;stroke:#263238;stroke-linecap:round;stroke-linejoin:round"></line><line x1="208.79" y1="432.68" x2="231.64" y2="405.47" style="fill:none;stroke:#263238;stroke-linecap:round;stroke-linejoin:round"></line><line x1="202.75" y1="439.87" x2="204.64" y2="437.63" style="fill:none;stroke:#263238;stroke-linecap:round;stroke-linejoin:round"></line><path d="M233.12,369.34s6.27,51.77,7.06,58.44,0,7.06-.4,8.24-8.23,5.88-6.27,9,6.27,1.18,6.27,1.18a9.11,9.11,0,0,0,5.1,2c2.75,0,3.53-1.18,3.53-1.18a8.92,8.92,0,0,0,7.06,1.57c4.32-.79,8.63-7.06,8.63-7.06s4.32-.39,5.1-3.92a30.22,30.22,0,0,0,.78-5.89s3.14,2.75,3.53-1.17a60.65,60.65,0,0,0,0-9s1.57.78.79-6.28-2.35-15.3-2.35-15.3,2-3.13.39-9.8-11.77-30.59-11.77-30.59" style="fill:#fff;stroke:#263238;stroke-linecap:round;stroke-linejoin:round"></path><path d="M245.75,384.32s6.89,9.92,13.5,13.23a46.33,46.33,0,0,0,11.3,4.13v-9.09S254.57,391.49,245.75,384.32Z" style="fill:#263238;stroke:#263238;stroke-miterlimit:10"></path><path d="M245,432.92s-1.26,3.13,1.88,3.76,4.39-.94,4.39-.94,1.57,2.82,4.08,1.88,2.82-1.88,2.82-1.88a4.24,4.24,0,0,0,5,1.57c3.13-1.26,3.13-3.45,3.13-3.45" style="fill:none;stroke:#263238;stroke-miterlimit:10"></path><path d="M239.78,446.22s-1.56-3.14,2.36-5.5" style="fill:#fff;stroke:#263238;stroke-linecap:round;stroke-linejoin:round"></path><path d="M248.41,447a5.83,5.83,0,0,1,3.92-5.1" style="fill:#fff;stroke:#263238;stroke-linecap:round;stroke-linejoin:round"></path><path d="M369.73,417.56s12,17.36,20.36,18,10.48-1.8,12.87-1.8,2.4,1.8.3,5.39-8.38,8.09-13.47,9.28-13.48-1.19-13.48-1.19,3.6,2.39,0,3-10.47-3.89-10.47-3.89,1.49,3.89-2.1,1.8a18.13,18.13,0,0,1-8.08-15" style="fill:#fff;stroke:#263238;stroke-linecap:round;stroke-linejoin:round"></path><path d="M232.83,306.19s-11,16.48-11.77,32.56,5.5,17.65,5.5,17.65,2.74,11.37,6.66,16.86,5.89,2.36,5.89,2.36a40.24,40.24,0,0,0,11.37,12.16c7.45,5.09,20.4,7.06,20.4,7.06L293.47,430a28.41,28.41,0,0,0,23.92,13.07h43.3s18.83-7.06,8.63-49.42-30.59-66.29-53.73-80.8c-15-9.41-26.67-7.84-26.67-7.84Z" style="fill:#fff;stroke:#263238;stroke-linecap:round;stroke-linejoin:round"></path><path d="M319.73,380.1s-13.9,5.56-20.51,11.47,3.32,11,3.32,11Z" style="fill:#263238;stroke:#263238;stroke-miterlimit:10"></path><polygon points="265.87 379.36 265.31 393.69 271.93 395.62 265.87 379.36" style="fill:#263238;stroke:#263238;stroke-miterlimit:10"></polygon><path d="M260.68,234l-12.94-.4s-6.67-14.9-10.59-14.51-8.24,15.3-8.24,18.44a47.11,47.11,0,0,1-.39,5.88s-6.28,3.14-10.59,12.55-1.57,11.37-1.57,11.37a23.52,23.52,0,0,0-2.75,7.46c-.78,4.31,3.53,5.1,3.53,5.1s-5.88,9.41-3.92,12.94S219.1,294,219.1,294s.79,9,2.75,10.59,7.06-.79,7.06-.79S239.11,314,241.46,316s5.88-.79,5.88-.79a31.69,31.69,0,0,0,9,3.93,45.92,45.92,0,0,0,32.95-4.71c6.28-3.53,10.2-11.37,10.2-11.37s3.14,5.1,4.31,1.17,1.57-11.76,1.57-11.76,3.53.78,3.53-2.36-.78-14.9-.78-14.9,1.57,0,1.57-4.32-2.36-11-2.36-11,3.92-25.1,0-25.1-13.72,7.06-13.72,7.06-1.57-4.31-2.75-4.31,3.53-2.36,1.57-3.53-9.41.39-9.41.39.39-7.06-2-4.71l-3.53,3.53s-2.74-8.24-5.09-6.67-2.36,5.49-2.36,5.49-7.06-2.74-7.06-.39A2.3,2.3,0,0,1,260.68,234Z" style="fill:#fff;stroke:#263238;stroke-linecap:round;stroke-linejoin:round"></path><path d="M226.23,287.78c-.66,2.61-1.16,5.38-.5,6,1.31,1.32,4.39.44,4.39.44s-.44,3.52,2.19,4.83a6.35,6.35,0,0,0,5.27,0" style="fill:none;stroke:#263238;stroke-linecap:round;stroke-linejoin:round"></path><path d="M227.72,282.72s-.36,1.09-.81,2.59" style="fill:none;stroke:#263238;stroke-linecap:round;stroke-linejoin:round"></path><path d="M246.61,236.25s-6.57-14.46-8.87-13.48-3.62,5.59-4.27,10.52a21.31,21.31,0,0,0,.33,8.22l3.28-2.63s-1.31-2.63,0-2.63a6.75,6.75,0,0,1,2.63.66s0-6.58,1-4.6a35,35,0,0,1,1.64,3.94Z" style="fill:#bababa;stroke:#263238;stroke-linecap:round;stroke-linejoin:round"></path><path d="M295.59,242.82s10.19-9.2,11.83-5.58-1.31,20.05-1.31,20.05l-2.63-5.59s.66-3.95-.33-3.95h-2.3s.33-2.63-1-2.63h-2.63Z" style="fill:#bababa;stroke:#263238;stroke-linecap:round;stroke-linejoin:round"></path><path d="M273.34,263s-12.55-2.36-22.36,3.53S238,280.69,240.39,280.29l2.36-.39s-3.93,3.53-3.14,6.28a3.22,3.22,0,0,0,3.53,2.35s-1.18,5.88-.79,7.06,3.14.78,3.14.78a35.22,35.22,0,0,0,18.83,15.69c13.33,4.71,23.92-3.53,26.28-5.49s3.92-5.88,3.92-5.88,2,3.14,3.14,0a21.87,21.87,0,0,0,1.17-6.67s3.53,1.18,3.14-1.18-3.14-9.41-3.14-9.41,3.53.79-1.56-5.88S289.81,263.43,273.34,263Z" style="fill:#263238;stroke:#263238;stroke-linecap:round;stroke-linejoin:round"></path><path d="M273.62,262.27s-12.55-2.36-22.35,3.53-13,14.12-10.59,13.72l2.35-.39s-3.92,3.53-3.14,6.28a3.22,3.22,0,0,0,3.53,2.35s-1.18,5.88-.78,7.06,3.13.78,3.13.78a35.27,35.27,0,0,0,18.83,15.69c13.34,4.71,23.93-3.53,26.28-5.49s3.92-5.88,3.92-5.88,2,3.14,3.14,0a21.71,21.71,0,0,0,1.18-6.67s3.53,1.18,3.13-1.18-3.13-9.41-3.13-9.41,3.53.79-1.57-5.88S290.1,262.66,273.62,262.27Z" style="fill:#fff;stroke:#263238;stroke-linecap:round;stroke-linejoin:round"></path><path d="M284.21,265.4s-8.63-5.88-14.9-3.13S268.13,274,275.19,276,290.88,269.72,284.21,265.4Z" style="fill:#263238;stroke:#263238;stroke-linecap:round;stroke-linejoin:round"></path><path d="M260.68,274s2,4.32,11.77,6.67,15.29-2,15.29-2" style="fill:none;stroke:#263238;stroke-linecap:round;stroke-linejoin:round"></path><path d="M243.81,243.05s-8.63,10.59-7.06,12.16,6.28-.4,6.28-.4-3.92,7.06,0,8.63,12.94-4.7,12.94-4.7,0,4.7,3.92,3.53a32.3,32.3,0,0,0,7.85-3.93s1.57,3.93,4.31,2.75,5.1-6.67,5.1-6.67,3.14,9,5.1,8.24l2-.79s5.1,5.89,8.24,4.71a4.81,4.81,0,0,0,3.14-4.31s4.31.78,4.7-2.75-1.17-10.59-5.88-15.3" style="fill:#fff;stroke:#263238;stroke-linecap:round;stroke-linejoin:round"></path><path d="M265,369.55s6.28,52.9,7.06,59.71,0,7.22-.39,8.42-8.24,6-6.27,9.22,6.27,1.2,6.27,1.2a9,9,0,0,0,5.1,2c2.75,0,3.53-1.2,3.53-1.2a8.78,8.78,0,0,0,7.06,1.6c4.31-.8,8.63-7.21,8.63-7.21s4.31-.4,5.1-4a31.41,31.41,0,0,0,.78-6s3.14,2.81,3.53-1.2a65,65,0,0,0,0-9.22s1.57.8.79-6.41-2.36-15.63-2.36-15.63,2-3.2.39-10-11.76-31.25-11.76-31.25" style="fill:#fff;stroke:#263238;stroke-linecap:round;stroke-linejoin:round"></path><path d="M275.77,435.11s-.94,2.83,1.57,2.83a6.91,6.91,0,0,0,4.39-1.89s-.94,3.14,3.45,2.83,6.27-1.57,6.27-1.57-.94,2.51,1.57,2.51,5.33-3.45,5.33-3.45" style="fill:none;stroke:#263238;stroke-miterlimit:10"></path><path d="M271.66,448.1s-1.57-3.21,2.35-5.61" style="fill:#fff;stroke:#263238;stroke-linecap:round;stroke-linejoin:round"></path><path d="M280.29,448.9a6,6,0,0,1,3.92-5.21" style="fill:#fff;stroke:#263238;stroke-linecap:round;stroke-linejoin:round"></path><path d="M319.73,441.18s-6.29,3.29-3.3,7.19,8.09.6,8.09.6a10.26,10.26,0,0,0,7.18,3c4.49,0,5.69-2.4,5.69-2.4s1.5,3,6.89,1.8,6.58-7.78,6.58-7.78Z" style="fill:#fff;stroke:#263238;stroke-linecap:round;stroke-linejoin:round"></path><path d="M326.31,375.91s-26.94,13.47-29,32.34,13.47,33.23,29.34,36.52,28.46,9.69,41-4.79c9.13-10.51,9-28.44,2.7-44,0,0-2.4-6.59-6.59-10.18" style="fill:#fff;stroke:#263238;stroke-linecap:round;stroke-linejoin:round"></path><path d="M318.55,430.16c2-.26,2.38-1.32,2.38-1.32" style="fill:none;stroke:#263238;stroke-miterlimit:10"></path><path d="M307.13,400s-5.95,4.08-5,9.72,4.07,1.25,4.07,1.25-4.74,8.41-.8,11.89,4.57-.28,4.57-.28,1.56,6.9,6,7.53" style="fill:none;stroke:#263238;stroke-miterlimit:10"></path><path d="M202.26,263.65s-2.55,97.19,5.64,109.79c4.89,7.52,15,10.15,18.42-13.54" style="fill:none;stroke:#263238;stroke-linecap:round;stroke-linejoin:round;stroke-width:3px"></path><path d="M168,186.84s5.25,28.89,15.38,42,15.39,16.89,19.14,13.51,9-19.51,10.88-31.52,3.38-27,3.38-27Z" style="fill:#bababa;stroke:#263238;stroke-linecap:round;stroke-linejoin:round"></path><path d="M220.68,143s6-3.76,7.9,1.5-1.5,16.17-4.51,19.18-4.14.37-4.14.37Z" style="fill:#bababa;stroke:#263238;stroke-linecap:round;stroke-linejoin:round"></path><path d="M153.7,151.19s-3.75-9.75-7.5-3.37.37,19.51,3,22.51,7.88,2.25,7.88,2.25S167.58,188.34,174,197s13.51,13.13,25.89,11.63,19.51-13.51,19.51-22.51,6-23.26,3.38-37.9-.38-13.88-2.63-29.26-1.12-25.52-6.75-30S184.09,84,168,89.66s-21,8.63-21.39,16.51S153.7,151.19,153.7,151.19Z" style="fill:#bababa;stroke:#263238;stroke-linecap:round;stroke-linejoin:round"></path><path d="M183.32,158.49a17.73,17.73,0,0,1-7.66,6.6" style="fill:none;stroke:#263238;stroke-linecap:round;stroke-linejoin:round"></path><path d="M203.4,157.43a14.15,14.15,0,0,0,9,4.49" style="fill:none;stroke:#263238;stroke-linecap:round;stroke-linejoin:round"></path><path d="M221.56,139.85c-.62-6.86.26-9.25-1.45-20.92-2.25-15.39-1.12-25.52-6.75-30S184.09,84,168,89.66s-21,8.63-21.39,16.51c-.32,6.74,5.12,34.85,6.7,42.87l.43.65s.75,6.76,1.88,8.63,4.13,2.25,4.13-1.5-3.38-14.26-1.51-18.38-.37-11.26,2.63-17.64,15-4.87,21.76-2.25,8.26,3.38,15,0S207,110.67,213,113.3s5.63,8.25,6.38,15C220,134.36,220.41,136.5,221.56,139.85Z" style="fill:#263238;stroke:#263238;stroke-linecap:round;stroke-linejoin:round"></path><path d="M217.11,174.46c-1.87-4.88-15-6-18-6S189,170,189,170s-19.13,3.76-19.13,7.13c0,3.18,1.33,11,2.42,17.55.59.82,1.16,1.61,1.7,2.34,6.38,8.63,13.51,13.13,25.89,11.63,8.51-1,14.54-7,17.48-13.59l.16-1.79S219,179.34,217.11,174.46Zm-4.5,11.63c-1.5,7.5-5.25,12.76-9,11.26s-2.25-5.63-2.25-5.63l-9,.75v3.37c0,2.26-1.13,2.63-4.5,2.26s-7.51-4.13-8.26-6.76-1.87-11.25-1.12-12.76,16.13-4.87,16.13-4.87l15.76.37S214.11,178.58,212.61,186.09Z" style="fill:#263238;stroke:#263238;stroke-linecap:round;stroke-linejoin:round"></path><path d="M198,153.07l.37,4.88s3.38,1.12,2.63,7.5-5.25,8.26-10.13,6.38-3.38-5.63-3.38-5.63" style="fill:#bababa;stroke:#263238;stroke-linecap:round;stroke-linejoin:round"></path><ellipse cx="178.47" cy="154.01" rx="1.88" ry="3.56" style="fill:#263238"></ellipse><path d="M210.36,152c0,2-.84,3.56-1.88,3.56s-1.87-1.6-1.87-3.56.84-3.57,1.87-3.57S210.36,150,210.36,152Z" style="fill:#263238"></path><path d="M183,178.58s12,6,25.51-2.62" style="fill:none;stroke:#263238;stroke-linecap:round;stroke-linejoin:round"></path><path d="M185.22,145.19s-10.13-3-16.13,1.5" style="fill:none;stroke:#263238;stroke-linecap:round;stroke-linejoin:round;stroke-width:3px"></path><path d="M199.85,143.32s6.38-5.26,15.39-1.13" style="fill:none;stroke:#263238;stroke-linecap:round;stroke-linejoin:round;stroke-width:3px"></path><path d="M222,223a1.54,1.54,0,0,1-.55-.11,1.5,1.5,0,0,1-.85-1.94,194.41,194.41,0,0,0,6.94-21.56c10.3-39.16,8.07-41.09,6.87-42.13a6.14,6.14,0,0,1-.47-.42c-1.28-1.29-4.88-2.34-6-2.61a1.5,1.5,0,1,1,.67-2.92c.55.13,5.37,1.29,7.49,3.41a4,4,0,0,0,.31.27c2.49,2.16,4.85,4.19-5.93,45.17a198.25,198.25,0,0,1-7,21.89A1.49,1.49,0,0,1,222,223Z" style="fill:#fff;stroke:#263238;stroke-linecap:round;stroke-linejoin:round"></path><path d="M227.43,154.61l-1-.29a2.38,2.38,0,0,1-1.62-2.95h0a2.38,2.38,0,0,1,2.94-1.62l1,.3a2.37,2.37,0,0,1,1.62,2.94h0A2.38,2.38,0,0,1,227.43,154.61Z" style="fill:#263238;stroke:#263238;stroke-linecap:round;stroke-linejoin:round"></path><path d="M166.84,223.46a1.51,1.51,0,0,1-1.23-.63c-14.88-21.09-27.27-49.2-27.27-53.19,0-4.79,8.8-9.77,10.57-10.72a1.5,1.5,0,1,1,1.42,2.64c-3.62,2-9,5.88-9,8.08,0,2.79,11.75,30.25,26.72,51.46a1.49,1.49,0,0,1-.36,2.09A1.44,1.44,0,0,1,166.84,223.46Z" style="fill:#fff;stroke:#263238;stroke-linecap:round;stroke-linejoin:round"></path><path d="M151.5,161.81l-.9.55a2.37,2.37,0,0,1-3.26-.79h0a2.37,2.37,0,0,1,.79-3.27l.9-.55a2.37,2.37,0,0,1,3.26.79h0A2.37,2.37,0,0,1,151.5,161.81Z" style="fill:#263238;stroke:#263238;stroke-linecap:round;stroke-linejoin:round"></path><path d="M223.07,218.65a3,3,0,0,0-3.89,1.7c-8.44,21.44-16.74,27.58-18.09,28.47-1,0-7.07-.54-21.84-16.19a112.34,112.34,0,0,1-10-12.39,3,3,0,1,0-4.91,3.45,118.19,118.19,0,0,0,10.51,13.06c12.5,13.24,20.07,17.2,24.45,18l.3,12.39a3,3,0,0,0,3,2.93h.08a3,3,0,0,0,2.93-3.07l-.34-13.79c3.42-2.61,11.53-10.48,19.46-30.63A3,3,0,0,0,223.07,218.65Z" style="fill:#263238"></path><path d="M93.2,319.53s-3.14,30.2.39,35.69,94.53,1.18,94.53,1.18l.39-19.61L136.35,327Z" style="fill:#bababa;stroke:#263238;stroke-linecap:round;stroke-linejoin:round"></path><polygon points="130.27 325.89 93.11 326.67 92.72 321.19 130.27 325.89" style="fill:#263238;stroke:#263238;stroke-linecap:round;stroke-linejoin:round"></polygon><path d="M121.05,219.91s-10.2,5.09-14.12,9.8-25.1,91.39-25.1,91.39l61.58,6.27-3.14-76.48" style="fill:#1B93AA;stroke:#263238;stroke-linecap:round;stroke-linejoin:round"></path><ellipse cx="252.43" cy="328.79" rx="11.11" ry="11.61" style="fill:#263238;stroke:#263238;stroke-linecap:round;stroke-linejoin:round"></ellipse><ellipse cx="252.43" cy="328.79" rx="7.3" ry="7.63" style="fill:#fff;stroke:#263238;stroke-linecap:round;stroke-linejoin:round"></ellipse><path d="M180.67,334s-1.18,24.71,0,25.1,15.29,0,17.25,0,22,5.49,32.17,6.67,14.9-2.74,17.65-7.45,5.09-8.24,5.09-8.24,7.46-14.9,7.06-20.39-1.17-7.46-3.53-6.67-2,3.53-4.7,7.45-4.32,5.1-5.89,5.88-9.8.4-11,0,13.34-3.53,16.08-8.62,1.57-7.85-1.17-7.85-6.28,2.35-12.55,3.92-21.18-.78-26.68,0-13.72,9-13.72,9Z" style="fill:#1B93AA;stroke:#263238;stroke-linecap:round;stroke-linejoin:round"></path><path d="M252.1,351.35s-5.31,3.32-10.95,3.32" style="fill:none;stroke:#263238;stroke-linecap:round;stroke-linejoin:round"></path><path d="M247.74,358.36a29.19,29.19,0,0,1-8.25,2.28" style="fill:none;stroke:#263238;stroke-linecap:round;stroke-linejoin:round"></path><line x1="234.79" y1="336.39" x2="224.89" y2="334.76" style="fill:none;stroke:#263238;stroke-linecap:round;stroke-linejoin:round"></line><line x1="100.52" y1="315.14" x2="141.74" y2="320.16" style="fill:none;stroke:#263238;stroke-linecap:round;stroke-linejoin:round"></line><line x1="89" y1="313.74" x2="94.08" y2="314.36" style="fill:none;stroke:#263238;stroke-linecap:round;stroke-linejoin:round"></line></g></svg>