<?xml version="1.0" encoding="iso-8859-1"?>
<!-- Generator: Adobe Illustrator 19.0.0, SVG Export Plug-In . SVG Version: 6.00 Build 0)  -->
<svg version="1.1" id="Layer_1" xmlns="http://www.w3.org/2000/svg" xmlns:xlink="http://www.w3.org/1999/xlink" x="0px" y="0px"
	 viewBox="0 0 512 512" style="enable-background:new 0 0 512 512;" xml:space="preserve">
<rect x="29.922" y="249.351" style="fill:#ACAAB0;" width="452.156" height="53.195"/>
<rect x="402.286" y="249.351" style="fill:#88888F;" width="79.792" height="53.195"/>
<path style="fill:#EDEDED;" d="M43.221,249.351l17.364-130.234C65.87,79.476,99.686,49.87,139.678,49.87h232.645
	c39.992,0,73.806,29.606,79.093,69.246l17.364,130.234"/>
<path style="fill:#D8D8DA;" d="M451.415,119.116c-5.285-39.642-39.1-69.246-79.093-69.246h-53.195
	c39.992,0,73.806,29.606,79.093,69.246l17.364,130.234h53.195L451.415,119.116z"/>
<path style="fill:#88888F;" d="M43.221,302.545L60.585,432.78c5.285,39.642,39.1,69.246,79.093,69.246h232.645
	c39.992,0,73.806-29.606,79.093-69.246l17.364-130.234H43.221z"/>
<path style="fill:#797781;" d="M402.286,302.545L384.922,432.78c-5.285,39.642-39.099,69.246-79.093,69.246h66.493
	c39.992,0,73.806-29.606,79.093-69.246l17.364-130.234H402.286z"/>
<g>
	<path style="fill:#2E2D31;" d="M482.078,239.377h-4.565l-16.211-121.578c-5.922-44.411-44.176-77.902-88.979-77.902H305.87V9.974
		c0-5.51-4.464-9.974-9.974-9.974h-79.792c-5.508,0-9.974,4.464-9.974,9.974v29.922h-66.452c-44.805,0-83.057,33.491-88.979,77.902
		l-16.21,121.578h-4.567c-5.508,0-9.974,4.464-9.974,9.974v53.195c0,5.51,4.466,9.974,9.974,9.974h4.567l16.21,121.578
		C56.621,478.509,94.873,512,139.678,512h232.645c44.803,0,83.057-33.491,88.979-77.902l8.499-63.741
		c0.727-5.459-3.109-10.477-8.568-11.205c-5.455-0.727-10.477,3.107-11.205,8.568l-8.499,63.741
		c-4.605,34.543-34.357,60.592-69.205,60.592H139.678c-34.848,0-64.6-26.048-69.206-60.59L54.612,312.519h427.465
		c5.51,0,9.974-4.464,9.974-9.974v-53.195C492.052,243.841,487.588,239.377,482.078,239.377z M226.078,19.948h59.844v19.948h-59.844
		V19.948z M70.471,120.436c4.607-34.543,34.359-60.592,69.206-60.592h232.645c34.848,0,64.6,26.048,69.205,60.592l15.859,118.941
		H54.612L70.471,120.436z M472.104,292.571H39.896v-33.247h432.208V292.571z"/>
	<path style="fill:#2E2D31;" d="M256,79.792c-5.508,0-9.974,4.464-9.974,9.974v119.688c0,5.51,4.466,9.974,9.974,9.974
		c5.51,0,9.974-4.464,9.974-9.974V89.766C265.974,84.257,261.51,79.792,256,79.792z"/>
	<path style="fill:#2E2D31;" d="M202.805,79.792c-5.508,0-9.974,4.464-9.974,9.974v119.688c0,5.51,4.466,9.974,9.974,9.974
		s9.974-4.464,9.974-9.974V89.766C212.779,84.257,208.314,79.792,202.805,79.792z"/>
	<path style="fill:#2E2D31;" d="M362.39,79.792c-5.51,0-9.974,4.464-9.974,9.974v119.688c0,5.51,4.464,9.974,9.974,9.974
		c5.51,0,9.974-4.464,9.974-9.974V89.766C372.364,84.257,367.899,79.792,362.39,79.792z"/>
	<path style="fill:#2E2D31;" d="M309.195,79.792c-5.51,0-9.974,4.464-9.974,9.974v119.688c0,5.51,4.464,9.974,9.974,9.974
		c5.51,0,9.974-4.464,9.974-9.974V89.766C319.169,84.257,314.704,79.792,309.195,79.792z"/>
	<path style="fill:#2E2D31;" d="M149.61,79.792c-5.508,0-9.974,4.464-9.974,9.974v119.688c0,5.51,4.466,9.974,9.974,9.974
		c5.508,0,9.974-4.464,9.974-9.974V89.766C159.584,84.257,155.119,79.792,149.61,79.792z"/>
</g>
<g>
</g>
<g>
</g>
<g>
</g>
<g>
</g>
<g>
</g>
<g>
</g>
<g>
</g>
<g>
</g>
<g>
</g>
<g>
</g>
<g>
</g>
<g>
</g>
<g>
</g>
<g>
</g>
<g>
</g>
</svg>
