<?xml version="1.0" encoding="iso-8859-1"?>
<!-- Generator: Adobe Illustrator 19.0.0, SVG Export Plug-In . SVG Version: 6.00 Build 0)  -->
<svg version="1.1" id="Layer_1" xmlns="http://www.w3.org/2000/svg" xmlns:xlink="http://www.w3.org/1999/xlink" x="0px" y="0px"
	 viewBox="0 0 512.001 512.001" style="enable-background:new 0 0 512.001 512.001;" xml:space="preserve">
<g>
	<g>
		<path d="M511.971,494.906l-8.728-100.452c-2.986-34.378-27.095-63.239-59.99-71.818l-99.982-26.073
			c-2.634-0.686-5.439,0.043-7.403,1.929l-2.45,2.351l-25.459-11.573l-2.377-14.535c9.64-6.145,18.499-14.321,25.893-23.667
			c27.518-5.502,47.869-30.014,47.869-58.4V91.115c0-45.509-37.024-82.533-82.534-82.533h-81.622
			c-27.43,0-52.997,13.578-68.393,36.322c-2.426,3.584-1.487,8.456,2.097,10.882c3.585,2.426,8.456,1.487,10.882-2.097
			c12.475-18.431,33.191-29.434,55.413-29.434h81.622c36.868,0,66.861,29.993,66.861,66.86v40.956
			c-3.013-1.767-6.508-2.797-10.246-2.797h-0.271v-4.106c0-2.449-1.145-4.757-3.095-6.239c-1.95-1.482-4.478-1.968-6.84-1.311
			c-6.347,1.764-12.824,3.216-19.403,4.371c-12.295,2.157-24.955,3.253-37.837,3.253c-28.51,0-56.237-5.524-80.184-15.643
			c-2.235-0.945-4.437-1.93-6.604-2.954c-0.149-0.07-0.3-0.139-0.448-0.21c-9.921-4.723-19.094-10.27-27.283-16.572
			c-2.367-1.822-5.562-2.139-8.241-0.821c-2.679,1.319-4.376,4.046-4.376,7.031v33.201h-0.271c-3.739,0-7.233,1.031-10.246,2.797
			V91.115c0-4.814,0.513-9.617,1.526-14.275c0.918-4.229-1.764-8.403-5.993-9.322c-4.228-0.919-8.403,1.765-9.322,5.993
			c-1.25,5.75-1.883,11.672-1.883,17.603v101.553c0,28.296,20.278,52.797,47.699,58.367c7.422,9.433,16.335,17.686,26.035,23.878
			l-2.348,14.356l-25.459,11.573l-2.45-2.351c-1.964-1.885-4.768-2.615-7.403-1.929l-99.982,26.073
			c-32.895,8.578-57.003,37.44-59.99,71.818L0.029,494.903c-0.19,2.188,0.547,4.355,2.031,5.975c1.484,1.619,3.58,2.54,5.776,2.54
			H95.85c0.004,0,0.007,0.001,0.011,0.001c0.003,0,0.007-0.001,0.01-0.001h320.256c0.004,0,0.007,0.001,0.01,0.001
			c0.004,0,0.007-0.001,0.011-0.001h88.014c2.196,0,4.291-0.922,5.776-2.54C511.424,499.261,512.162,497.092,511.971,494.906z
			 M353.156,144.946h0.271c2.576,0,4.672,2.096,4.672,4.672v18.675c0,2.576-2.096,4.672-4.672,4.672h-0.271V144.946z
			 M347.878,222.311c0.099-0.264,0.196-0.528,0.293-0.792c0.265-0.728,0.523-1.458,0.769-2.188c0.237-0.702,0.464-1.404,0.681-2.105
			c0.111-0.358,0.22-0.716,0.326-1.074c0.284-0.962,0.552-1.924,0.799-2.885c0.054-0.212,0.106-0.425,0.159-0.637
			c0.547-2.197,0.997-4.387,1.346-6.565c0.021-0.13,0.044-0.26,0.064-0.39c0.166-1.07,0.305-2.136,0.421-3.198
			c0.019-0.173,0.038-0.346,0.055-0.519c0.109-1.058,0.195-2.114,0.255-3.164c0.008-0.145,0.013-0.289,0.02-0.434
			c0.054-1.098,0.09-2.192,0.09-3.278v-6.441h0.271c3.739,0,7.233-1.031,10.246-2.798v6.825h0c0,14.44-7.144,27.523-18.237,35.575
			C346.32,226.281,347.133,224.302,347.878,222.311z M153.903,149.618c0-2.576,2.096-4.672,4.672-4.672h0.271v28.019h-0.271
			c-2.576,0-4.672-2.096-4.672-4.672V149.618z M148.329,192.668v-6.828c3.013,1.767,6.508,2.798,10.246,2.798h0.271v6.637
			c0,1.086,0.034,2.18,0.09,3.278c0.007,0.137,0.011,0.274,0.019,0.411c0.06,1.053,0.146,2.112,0.255,3.174
			c0.017,0.161,0.033,0.323,0.051,0.484c0.117,1.069,0.257,2.142,0.424,3.219c0.018,0.116,0.039,0.233,0.056,0.349
			c0.354,2.222,0.814,4.46,1.375,6.704c0.034,0.137,0.066,0.274,0.101,0.412c0.26,1.017,0.543,2.034,0.844,3.052
			c0.08,0.273,0.163,0.546,0.247,0.819c0.282,0.921,0.577,1.841,0.892,2.762c0.148,0.436,0.307,0.868,0.463,1.303
			c0.167,0.464,0.339,0.928,0.514,1.391c0.696,1.851,1.448,3.691,2.266,5.517C155.423,220.085,148.329,207.039,148.329,192.668z
			 M177.439,212.904c-0.04-0.126-0.079-0.253-0.119-0.379c-0.235-0.758-0.45-1.514-0.656-2.272
			c-0.076-0.282-0.155-0.564-0.227-0.845c-0.159-0.613-0.302-1.225-0.442-1.837c-0.087-0.381-0.177-0.764-0.256-1.145
			c-0.111-0.528-0.207-1.053-0.302-1.58c-0.079-0.434-0.162-0.869-0.23-1.301c-0.08-0.501-0.143-0.999-0.209-1.498
			c-0.057-0.435-0.121-0.871-0.168-1.303c-0.061-0.555-0.1-1.107-0.142-1.657c-0.028-0.364-0.067-0.731-0.087-1.093
			c-0.051-0.911-0.079-1.819-0.079-2.72V180.8v-43.692v-26.087c30.662,19.122,70.4,29.89,111.462,29.89
			c13.531,0,26.845-1.135,39.801-3.362c3.934-0.676,7.839-1.445,11.702-2.325v1.883v43.692v14.277c0,0.905-0.029,1.816-0.08,2.731
			c-0.021,0.368-0.06,0.742-0.089,1.113c-0.043,0.549-0.081,1.096-0.142,1.647c-0.048,0.444-0.114,0.892-0.173,1.34
			c-0.065,0.488-0.126,0.976-0.205,1.466c-0.072,0.45-0.158,0.905-0.241,1.357c-0.093,0.506-0.185,1.011-0.291,1.519
			c-0.086,0.409-0.182,0.819-0.276,1.229c-0.134,0.58-0.27,1.16-0.42,1.741c-0.083,0.319-0.171,0.639-0.258,0.959
			c-0.194,0.709-0.397,1.419-0.617,2.128c-0.055,0.18-0.113,0.36-0.17,0.54c-6.511,20.502-23,40.884-41.631,51.159
			c-0.184,0.101-0.369,0.197-0.553,0.297c-0.596,0.322-1.194,0.63-1.794,0.93c-0.262,0.132-0.525,0.265-0.787,0.393
			c-0.707,0.343-1.418,0.668-2.131,0.98c-0.287,0.125-0.575,0.245-0.861,0.365c-0.57,0.239-1.14,0.468-1.712,0.686
			c-0.223,0.085-0.446,0.176-0.668,0.257c-0.763,0.28-1.528,0.539-2.294,0.782c-0.207,0.066-0.413,0.128-0.619,0.19
			c-0.809,0.246-1.619,0.478-2.428,0.679l-0.976,0.242c-9.525,2.365-16.268,3.733-22.542,3.733c-3.966,0-8.015-0.527-12.906-1.529
			c-0.489-0.1-0.986-0.205-1.493-0.315c-2.533-0.549-5.295-1.214-8.383-1.992c-0.81-0.204-1.619-0.439-2.426-0.686
			c-0.198-0.061-0.395-0.121-0.594-0.185c-0.767-0.246-1.533-0.508-2.297-0.791c-0.208-0.077-0.417-0.162-0.625-0.242
			c-0.604-0.232-1.208-0.476-1.81-0.731c-0.242-0.102-0.484-0.203-0.726-0.308c-0.743-0.327-1.484-0.67-2.221-1.03
			c-0.208-0.101-0.416-0.208-0.624-0.311c-0.726-0.364-1.451-0.739-2.171-1.134c-0.058-0.032-0.118-0.063-0.177-0.095
			C200.431,253.899,183.922,233.435,177.439,212.904z M214.341,301.803c2.383-1.083,4.068-3.286,4.491-5.869l2.215-13.543
			c0.122,0.047,0.243,0.089,0.366,0.135c0.403,0.153,0.807,0.304,1.212,0.448c0.874,0.315,1.747,0.611,2.618,0.886
			c0.215,0.068,0.432,0.131,0.648,0.196c1.011,0.307,2.021,0.597,3.027,0.849c10.84,2.729,18.669,4.309,26.608,4.309
			c7.877,0,15.615-1.538,26.322-4.196l0.975-0.242c1.003-0.249,2.009-0.534,3.018-0.837c0.238-0.071,0.476-0.141,0.715-0.215
			c0.869-0.272,1.741-0.563,2.612-0.875c0.442-0.157,0.883-0.323,1.323-0.489c0.144-0.055,0.288-0.104,0.434-0.16l2.245,13.733
			c0.423,2.584,2.108,4.786,4.491,5.869l23.585,10.721l-65.245,62.609l-65.245-62.609L214.341,301.803z M141.822,376.101
			c5.987,0,10.859,5.022,10.859,11.195s-4.871,11.195-10.859,11.195s-10.858-5.023-10.858-11.195S135.834,376.101,141.822,376.101z
			 M423.321,487.747l-6.108-68.852c-0.382-4.311-4.183-7.496-8.499-7.114c-4.31,0.382-7.496,4.188-7.114,8.499l5.986,67.466h-303.17
			l2.422-27.302c0.382-4.311-2.802-8.116-7.114-8.498c-4.303-0.38-8.116,2.802-8.498,7.114l-2.545,28.686H16.385l7.988-91.937
			c2.415-27.788,21.837-51.099,48.33-58.009l61.282-15.98v39.805c-10.817,3.393-18.695,13.617-18.695,25.671
			c0,14.815,11.902,26.868,26.532,26.868c14.629,0,26.533-12.054,26.533-26.868c0-12.054-7.879-22.278-18.696-25.671v-43.892
			l18.784-4.898l79.721,76.501v50.673c0,4.328,3.509,7.837,7.837,7.837c4.328,0,7.837-3.509,7.837-7.837v-50.673l79.721-76.501
			l10.122,2.639v46.971c-15.566,0.659-28.03,13.689-28.03,29.618v68.058c0,2.833,1.529,5.445,3.999,6.833l14.668,8.24
			c1.214,0.682,2.531,1.006,3.832,1.006c2.74,0,5.401-1.44,6.839-4c2.12-3.773,0.779-8.551-2.994-10.67l-10.669-5.995v-63.472
			c0-7.707,6.097-13.977,13.592-13.977h13.202c7.495,0,13.592,6.27,13.592,13.977v63.472l-10.668,5.995
			c-3.773,2.12-5.114,6.897-2.994,10.67c2.119,3.773,6.897,5.114,10.67,2.994l14.667-8.24c2.47-1.388,3.999-4,3.999-6.833v-68.058
			c0-15.929-12.464-28.96-28.03-29.618v-42.883l69.945,18.24c26.493,6.909,45.915,30.221,48.33,58.009l7.988,91.937H423.321z"/>
	</g>
</g>
<g>
	<g>
		<path d="M103.289,411.782c-4.309-0.38-8.117,2.802-8.499,7.114l-1.284,14.478c-0.382,4.311,2.802,8.117,7.114,8.499
			c0.236,0.021,0.469,0.031,0.702,0.031c4.014,0,7.435-3.07,7.797-7.144l1.284-14.478
			C110.785,415.97,107.599,412.164,103.289,411.782z"/>
	</g>
</g>
<g>
	<g>
		<path d="M205.412,147.978c-4.328,0-7.837,3.509-7.837,7.837v6.28c0,4.328,3.509,7.837,7.837,7.837
			c4.328,0,7.837-3.509,7.837-7.837v-6.28C213.248,151.487,209.74,147.978,205.412,147.978z"/>
	</g>
</g>
<g>
	<g>
		<path d="M306.591,147.978c-4.328,0-7.837,3.509-7.837,7.837v6.28c0,4.329,3.509,7.837,7.837,7.837s7.837-3.509,7.837-7.837v-6.28
			C314.427,151.487,310.919,147.978,306.591,147.978z"/>
	</g>
</g>
<g>
</g>
<g>
</g>
<g>
</g>
<g>
</g>
<g>
</g>
<g>
</g>
<g>
</g>
<g>
</g>
<g>
</g>
<g>
</g>
<g>
</g>
<g>
</g>
<g>
</g>
<g>
</g>
<g>
</g>
</svg>
